<?xml version="1.0" standalone="no"?>
<!DOCTYPE svg PUBLIC "-//W3C//DTD SVG 1.1//EN" "http://www.w3.org/Graphics/SVG/1.1/DTD/svg11.dtd" >
<svg xmlns="http://www.w3.org/2000/svg">
<metadata>Generated by IcoMoon</metadata>
<defs>
<font id="photographer" horiz-adv-x="1024">
<font-face units-per-em="1024" ascent="960" descent="-64" />
<missing-glyph horiz-adv-x="1024" />
<glyph unicode="&#x20;" horiz-adv-x="512" d="" />
<glyph unicode="&#xe900;" glyph-name="camera" d="M512-85.333c122.301 0 234.589 42.91 322.624 114.466l179.689-64.956-74.91 180.555c53.467 80.857 84.597 177.756 84.597 281.935-0.002 282.773-229.223 512-512 512-282.785 0-512-229.227-512-512 0-282.777 229.215-512 512-512zM228.682 559.879l106.643 25.055c30.24 58.333 91.090 98.21 161.333 98.21 40.139 0 77.229-13.049 107.295-35.111l103.3 24.276c24.388 5.711 49.346-11.889 55.79-39.356l69.732-296.89c6.468-27.476-8.066-54.367-32.421-60.099l-478.555-112.423c-24.372-5.733-49.35 11.889-55.8 39.356l-69.756 296.905c-6.449 27.445 8.078 54.343 32.438 60.078zM522.378 293.857c71.222 0 128.979 57.745 128.979 128.989 0 71.222-57.757 128.967-128.979 128.967-71.251 0-129.001-57.745-129.001-128.967 0-71.244 57.75-128.989 129.001-128.989zM522.378 505.322c45.555 0 82.478-36.932 82.478-82.488 0-45.544-36.923-82.467-82.478-82.467s-82.478 36.923-82.478 82.467c0 45.555 36.923 82.488 82.478 82.488z" />
<glyph unicode="&#xe901;" glyph-name="camera-shutter" d="M351.115 275.433l-263.512 437.358c-55.288-81.747-87.604-180.198-87.604-286.114 0-52.628 8.001-103.441 22.829-151.244h328.286zM461.836 643.768h513.66c-65.971 140.293-193.767 245.921-348.125 281.597l-165.535-281.597zM296.94 485.265l265.017 450.906c-16.457 1.629-33.099 2.495-49.988 2.495-152.646 0-289.805-67.229-383.678-173.557l168.649-279.845zM403.702-69.186l162.091 282.752h-519.146c68.095-148.109 204.759-258.232 369.139-289.681l-12.085 6.929zM672.039 581.901l258.789-449.071c58.629 83.252 93.172 184.57 93.172 293.868 0 54.092-8.496 106.225-24.128 155.203h-327.833zM724.791 366.398l-257.799-449.587c14.827-1.299 29.82-2.124 44.977-2.124 149.161 0 283.618 64.156 377.285 166.298l-164.463 285.413z" />
<glyph unicode="&#xe902;" glyph-name="cloud-storage-download" d="M979.448 383.21c-29.694 37.155-67.641 61.237-113.872 72.262 14.589 22.043 21.863 46.577 21.863 73.598 0 37.691-13.336 69.866-39.992 96.535-26.662 26.66-58.839 39.996-96.53 39.996-33.779 0-63.286-11.023-88.525-33.069-20.968 51.202-54.492 92.267-100.531 123.195-46.039 30.938-96.797 46.405-152.269 46.405-75.372 0-139.731-26.673-193.065-80.007-53.337-53.321-79.998-117.683-79.998-193.061 0-4.621 0.357-12.267 1.067-22.93-41.954-19.556-75.372-48.888-100.267-87.995-24.886-39.118-37.329-81.776-37.329-128.007 0-65.78 23.382-122.035 70.133-168.79 46.753-46.769 103.021-70.14 168.797-70.14h580.272c56.524 0 104.788 20.008 144.793 60.001 40 39.992 60.002 88.256 60.002 144.801-0.006 47.644-14.854 90.040-44.55 127.206zM677.332 362.676l-187.203-187.214c-3.196-3.189-7.287-4.793-12.267-4.793-4.976 0-9.067 1.605-12.267 4.793l-187.728 187.739c-3.2 3.196-4.797 7.287-4.797 12.267 0 4.621 1.681 8.623 5.059 11.998 3.385 3.377 7.377 5.064 11.998 5.064h119.467v187.73c0 4.621 1.691 8.623 5.066 12.006 3.379 3.372 7.377 5.059 11.998 5.059h102.41c4.629 0 8.61-1.681 12.006-5.059 3.37-3.383 5.057-7.384 5.057-12.006v-187.73h119.467c4.978 0 9.069-1.597 12.26-4.793 3.202-3.196 4.786-7.287 4.786-12.267 0-4.285-1.763-8.535-5.311-12.794z" />
<glyph unicode="&#xe903;" glyph-name="comment" d="M633.129 488.328l47.895-27.378 95.821 54.755-143.717 85.54zM924 662.875l34.222 61.584c27.362 47.926-51.318 102.681-88.977 123.184-37.659 20.548-123.184 65.037-150.561 13.689l-47.926-82.133c-47.926 10.267-102.681 17.111-157.421 17.111-284.042 0.015-513.329-153.999-513.329-342.219 0-188.19 229.287-342.189 513.329-342.189 0 0 0 0 3.437 0 3.422-41.066-44.489-109.51-112.948-143.717 270.384 0 393.568 201.909 393.568 201.909 136.872 61.599 225.85 164.265 225.85 284.042 6.844 78.68-34.222 150.546-99.244 208.739zM236.124 358.269c-27.378 0-47.911 20.564-47.911 47.941s20.533 47.911 47.911 47.911 47.911-20.533 47.911-47.911c0-27.378-23.925-47.941-47.911-47.941zM362.745 358.269c-27.378 0-47.911 20.564-47.911 47.941s20.533 47.911 47.911 47.911 47.911-20.533 47.911-47.911c0-27.378-20.533-47.941-47.911-47.941zM489.381 358.269c-27.378 0-47.926 20.564-47.926 47.941s20.548 47.911 47.926 47.911 47.911-20.533 47.911-47.911c0-27.378-20.533-47.941-47.911-47.941zM793.972 505.439l-99.244-54.755-82.148-44.473v205.316l136.903 236.131c6.829 13.689 54.755 0 106.073-27.378s85.555-61.584 75.288-75.288l-136.872-239.554z" />
<glyph unicode="&#xe904;" glyph-name="contact" d="M499.512 350.923h-24.911c-12.921 0-23.405 10.452-23.405 23.373 0 4.777 1.924 9.394 5.354 12.728 14.492 14.075 26.675 33.023 35.492 53.446 1.795-1.315 3.719-2.276 5.899-2.276 13.979 0 30.458 30.907 30.458 51.971s-1.956 38.153-15.966 38.153c-1.667 0-3.398-0.289-5.194-0.737-0.994 57.133-15.421 128.405-102.66 128.405-91.022 0-101.634-71.144-102.66-128.212-1.282 0.256-2.565 0.545-3.751 0.545-14.011 0-15.934-17.089-15.934-38.153s16.415-51.971 30.426-51.971c1.731 0 3.334 0.481 4.841 1.347 8.785-20.102 20.808-38.666 35.075-52.612 3.431-3.334 5.354-7.887 5.354-12.696 0-12.921-10.484-23.405-23.405-23.405h-24.944c-53.286 0-96.472-43.186-96.472-96.472v-26.739c0-16.8 13.626-30.458 30.458-30.458h321.958c16.8 0 30.426 13.658 30.426 30.458v26.739c0.032 53.35-43.154 96.568-96.44 96.568zM788.351 615.587h-269.987c7.791-17.249 13.369-38.473 15.678-64.731 5.771-3.559 10.099-9.298 13.626-16.223h240.683c12.504 0 22.571 10.099 22.571 22.571v35.812c0 12.44-10.067 22.571-22.571 22.571zM788.351 468.074h-235.168c-6.38-24.11-22.090-49.342-43.86-56.075-0.641-1.186-1.379-2.212-2.052-3.398v-21.481h281.048c12.472 0 22.571 10.099 22.571 22.603v35.78c0.032 12.472-10.035 22.571-22.539 22.571zM788.351 320.561h-183.582c12.119-19.173 19.237-41.776 19.237-66.11v-14.844h164.345c12.504 0 22.571 10.099 22.571 22.571v35.812c0 12.472-10.067 22.571-22.571 22.571zM885.368 840.656h-746.703c-76.594 0-138.664-62.070-138.664-138.664v-550.682c0-76.626 62.070-138.664 138.664-138.664h746.703c76.594 0 138.632 62.070 138.632 138.664v550.682c0 76.594-62.038 138.664-138.632 138.664zM958.563 151.31c0-40.365-32.831-73.196-73.196-73.196h-746.703c-40.365 0-73.196 32.831-73.196 73.196v550.682c0 40.365 32.831 73.196 73.196 73.196h746.703c40.365 0 73.196-32.831 73.196-73.196v-550.682z" />
<glyph unicode="&#xe905;" glyph-name="delete" d="M989.385 736.971l-310.266-310.298 310.266-310.283c46.15-46.168 46.15-120.954 0-167.122-23.059-23.059-53.291-34.597-83.508-34.597-30.267 0-60.502 11.521-83.544 34.597l-310.333 310.318-310.31-310.316c-23.056-23.059-53.291-34.597-83.535-34.597-30.235 0-60.449 11.521-83.526 34.597-46.15 46.148-46.15 120.937 0 167.122l310.257 310.283-310.274 310.295c-46.15 46.15-46.15 120.954 0 167.105 46.142 46.115 120.901 46.115 167.061 0l310.324-310.298 310.301 310.298c46.168 46.115 120.937 46.115 167.069 0 46.168-46.15 46.168-120.954 0.018-167.105z" />
<glyph unicode="&#xe906;" glyph-name="download" d="M955.349 683.672c-45.786 78.439-107.891 140.545-186.333 186.328-78.456 45.781-164.101 68.667-257.001 68.667-92.891 0-178.562-22.886-257.003-68.667-78.446-45.776-140.552-107.882-186.338-186.328-45.788-78.451-68.674-164.122-68.674-257.006 0-92.889 22.893-178.546 68.667-257.001 45.783-78.439 107.889-140.545 186.335-186.333 78.451-45.779 164.115-68.667 257.003-68.667s178.562 22.888 257.008 68.667c78.442 45.772 140.545 107.894 186.326 186.333 45.774 78.449 68.658 164.117 68.658 257.001 0.002 92.893-22.884 178.567-68.648 257.006zM826.008 244.669c-32.443-55.553-76.44-99.551-131.994-132.010-55.553-32.443-116.218-48.649-182.006-48.649-65.772 0-126.441 16.205-182.001 48.649-55.553 32.46-99.551 76.457-131.994 132.010-32.45 55.553-48.67 116.221-48.67 181.997 0 65.781 16.226 126.448 48.67 182.001 32.436 55.553 76.445 99.56 131.994 132.001 55.553 32.446 116.221 48.663 182.001 48.663 65.786 0 126.453-16.217 182.006-48.663 55.553-32.443 99.553-76.447 131.994-132.001 32.446-55.553 48.658-116.221 48.658-182.001 0-65.776-16.212-126.443-48.658-181.997zM725.346 426.666h-127.992v234.683c0 6.225-2.013 11.332-6.008 15.334-3.979 3.991-9.095 5.996-15.311 5.996h-128.015c-6.221 0-11.334-2.006-15.334-5.996-4.002-4.005-6.001-9.109-6.001-15.334v-234.673h-128.006c-9.775 0-16.443-4.448-20.002-13.331-3.559-8.455-1.994-16.222 4.668-23.341l213.338-213.333c4.894-3.995 10.001-5.994 15.334-5.994 5.326 0 10.44 1.999 15.339 5.994l212.67 212.661c4.441 5.331 6.657 10.685 6.657 16 0 6.216-1.996 11.332-6.008 15.341-3.991 3.998-9.104 5.994-15.33 5.994z" />
<glyph unicode="&#xe907;" glyph-name="edit-document" d="M64 42.667v768c0 35.312 28.752 64 64 64h640c35.312 0 64-28.688 64-64v-376.248l64 64v312.248c0 70.688-57.312 128-128 128h-640c-70.688 0-128-57.312-128-128v-768c0-70.688 57.312-128 128-128h352v64h-352c-35.248 0-64 28.688-64 64zM704 746.667h-512v-64h512v64zM704 618.667h-512v-64h512v64zM704 490.667h-512v-64h512v64zM192 298.667h256v64h-256v-64zM1005.248 362.667l-45.248 45.248c-12.504 12.504-28.872 18.752-45.248 18.752s-32.752-6.248-45.248-18.752l-274.752-274.752c-12.504-12.496-50.752-60.84-50.752-77.216l-32-141.28 141.248 32c0 0 64.752 38.248 77.248 50.752l274.752 274.752c25 24.992 25 65.528 0 90.496zM707.936 20.107c-3.624-3.44-16.16-11.904-31.472-21.656l-82.904 82.904c8.504 11.656 17.968 23.376 23.816 29.184l206.872 206.872 90.504-90.504-206.816-206.8z" />
<glyph unicode="&#xe908;" glyph-name="eye" d="M1016.354 446.677c-9.14 10.196-228.99 249.99-504.354 249.99s-495.212-239.794-504.354-249.99c-10.196-11.396-10.196-28.624 0-40.020 9.142-10.196 228.994-249.99 504.354-249.99s495.212 239.794 504.354 249.99c10.194 11.396 10.194 28.624 0 40.020zM512 216.667c-115.782 0-210 94.218-210 210s94.218 210 210 210 210-94.218 210-210-94.218-210-210-210zM542 486.667c0 30.18 14.982 56.73 37.774 73.060-20.452 10.47-43.264 16.94-67.774 16.94-82.706 0-150-67.294-150-150s67.294-150 150-150c74.048 0 135.336 54.068 147.444 124.716-60.412-19.45-117.444 26.24-117.444 85.284z" />
<glyph unicode="&#xe909;" glyph-name="eyes-star" d="M867.021 781.585c-195.789 195.789-514.253 195.789-709.939 0-195.789-195.686-195.686-514.253 0-709.939s514.15-195.686 709.939 0c195.686 195.789 195.686 514.253 0 709.939zM812.237 126.43c-165.478-165.581-434.893-165.581-600.371 0-165.581 165.581-165.581 434.893 0 600.474 165.581 165.478 434.893 165.581 600.474 0 165.376-165.581 165.376-434.893-0.102-600.474zM310.579 573.918c-1.741 1.741-2.355 4.403-1.536 6.758s2.867 4.096 5.325 4.506l43.52 6.656 19.558 41.574c1.126 2.355 3.482 3.789 6.042 3.789s4.915-1.536 6.042-3.789l19.558-41.574 43.52-6.656c2.458-0.41 4.506-2.15 5.325-4.506s0.205-5.018-1.536-6.758l-31.744-32.563 7.475-45.978c0.41-2.56-0.614-5.018-2.765-6.554-1.126-0.819-2.458-1.229-3.789-1.229-1.126 0-2.253 0.307-3.174 0.819l-38.912 21.504-38.912-21.504c-2.253-1.229-4.915-1.126-7.066 0.41-2.048 1.434-3.174 3.994-2.765 6.554l7.475 45.978-31.642 32.563zM576.614 573.918c-1.741 1.741-2.355 4.403-1.536 6.758s2.867 4.096 5.325 4.506l43.52 6.656 19.558 41.574c1.126 2.355 3.482 3.789 6.042 3.789s4.915-1.536 6.042-3.789l19.558-41.574 43.52-6.656c2.458-0.41 4.506-2.15 5.325-4.506s0.205-5.018-1.536-6.758l-31.744-32.563 7.475-45.978c0.41-2.56-0.614-5.018-2.765-6.554-1.126-0.819-2.458-1.229-3.789-1.229-1.126 0-2.253 0.307-3.174 0.819l-38.912 21.504-38.81-21.504c-2.253-1.229-4.915-1.126-7.066 0.41-2.048 1.434-3.174 3.994-2.765 6.554l7.475 45.978-31.744 32.563zM753.459 350.686c2.56-3.789 2.97-8.602 1.126-12.8-40.55-93.696-135.475-154.317-241.869-154.317-108.646 0-204.186 60.826-243.302 155.034-1.741 4.198-1.229 9.011 1.229 12.8 2.56 3.789 6.758 6.042 11.264 6.042 0 0 0 0 0 0l460.186-0.614c4.608-0.102 8.806-2.355 11.366-6.144z" />
<glyph unicode="&#xe90a;" glyph-name="facebook" d="M512 938.667c-282.771 0-512-229.229-512-512s229.229-512 512-512 512 229.229 512 512-229.229 512-512 512zM707.33 677.927l-70.816-0.031c-55.532 0-66.269-26.388-66.269-65.106v-85.377h132.423l-0.063-133.722h-132.35v-343.163h-138.122v343.163h-115.463v133.722h115.463v98.618c0 114.447 69.925 176.777 172.011 176.777l103.196-0.157v-124.724h-0.010z" />
<glyph unicode="&#xe90b;" glyph-name="fall" d="M238.786 735.331c39.715 0 71.912 32.197 71.912 71.912 0 51.241-71.912 131.424-71.912 131.424s-71.912-80.184-71.912-131.424c0-39.715 32.197-71.912 71.912-71.912zM111.051 858.602c0 31.205-43.821 80.065-43.821 80.065s-43.802-48.86-43.802-80.065c0-24.202 19.619-43.821 43.802-43.821s43.821 19.619 43.821 43.821zM568.825 881.515v5.039c0 18.985-15.791 34.379-35.212 34.379-19.461 0-35.232-15.394-35.232-34.379v-5.078c-54.534-4.106-106.211-17.993-153.901-39.219 3.67-11.883 5.912-23.706 5.912-34.994 0-61.536-50.050-111.587-111.587-111.587-23.25 0-44.833 7.161-62.727 19.362-66.774-79.886-107.659-182.169-108.73-294.212 1.23 63.282 52.867 114.324 116.487 114.324 64.433 0 116.645-52.213 116.645-116.606 0 64.413 52.213 116.606 116.606 116.606 24.321 0 46.876-7.459 65.563-20.175v-463.566c0-74.233 59.513-134.896 133.329-136.721l3.412-0.040v0.040c73.836 1.825 133.329 62.409 133.329 136.721 0 27.396-22.159 49.594-49.594 49.594-27.396 0-49.594-22.198-49.594-49.594 0-20.155-15.93-36.64-35.847-37.533-19.917 0.893-35.866 17.378-35.866 37.533v461.325c19.262 14.005 42.869 22.377 68.48 22.377 64.433 0 116.645-52.213 116.645-116.586 0 64.393 52.233 116.586 116.626 116.586 64.433 0 116.626-52.213 116.626-116.586 0-0.774 0.397-2.261 0.397-2.261-0.040 245.987-190.362 447.359-431.767 465.253z" />
<glyph unicode="&#xe90c;" glyph-name="garbage" d="M142.817 642.793h138.691v-670.339h-138.691v670.339zM489.544 359.286v283.507h-138.691v-670.339h102.104c-34.351 48.697-54.556 108.054-54.556 172.046 0.002 84.197 34.975 160.366 91.143 214.786zM697.58 443.677v199.116h-138.691v-233.273c41.482 21.798 88.667 34.157 138.691 34.157zM743.81 850.83h-192.743v87.837h-261.737v-87.837h-192.743v-138.691h647.223v138.691zM358.675 869.322h123.046v-18.492h-123.046v18.492zM697.58 374.332c-126.731 0-229.831-103.103-229.831-229.831s103.1-229.834 229.831-229.834 229.834 103.103 229.834 229.834-103.103 229.831-229.834 229.831zM822.808 68.306l-49.034-49.034-76.194 76.194-76.194-76.194-49.034 49.034 76.194 76.194-76.194 76.194 49.034 49.034 76.194-76.194 76.194 76.194 49.034-49.034-76.194-76.194 76.194-76.194z" />
<glyph unicode="&#xe90d;" glyph-name="inspire" d="M857.436 812.183c-81.566 81.564-190.012 126.484-305.358 126.484-115.35 0-223.796-44.92-305.358-126.484-80.724-80.724-125.554-187.766-126.468-301.784l-78.584-157.168c-3.512-7.024-1.024-15.568 5.71-19.608l72.86-43.716v-231.96c0-8.3 6.73-15.030 15.030-15.030h145.284v-113.222c0-8.3 6.73-15.030 15.030-15.030s15.030 6.73 15.030 15.030v128.252c0 8.3-6.73 15.030-15.030 15.030h-145.288v225.44c0 5.278-2.77 10.172-7.296 12.888l-68.224 40.934 73.932 147.864c1.044 2.088 1.588 4.386 1.588 6.722 0 221.544 180.24 401.784 401.784 401.784s401.784-180.24 401.784-401.784c0-124.494-56.328-239.928-154.54-316.712-3.644-2.848-5.774-7.216-5.774-11.842v-248.574c0-8.3 6.728-15.030 15.030-15.030s15.030 6.73 15.030 15.030v241.324c101.984 82.492 160.314 204.456 160.314 335.802-0.002 115.35-44.92 223.796-126.486 305.36zM552.078 762.323c-52.484 0-95.186-42.702-95.186-95.186s42.7-95.186 95.186-95.186c52.484 0 95.186 42.702 95.186 95.186s-42.702 95.186-95.186 95.186zM552.078 602.009c-35.912 0-65.128 29.218-65.128 65.128s29.214 65.128 65.128 65.128c35.912 0 65.128-29.218 65.128-65.128-0.002-35.91-29.216-65.128-65.128-65.128zM552.078 842.479c-8.302 0-15.030-6.73-15.030-15.030v-32.062c0-8.3 6.728-15.030 15.030-15.030s15.030 6.73 15.030 15.030v32.062c-0.002 8.302-6.728 15.030-15.030 15.030zM500.966 785.719l-16.032 27.766c-4.15 7.188-13.344 9.65-20.53 5.5-7.188-4.15-9.65-13.342-5.5-20.53l16.032-27.766c2.786-4.82 7.838-7.516 13.030-7.516 11.396 0 18.664 12.734 13 22.546zM448.524 744.277l-27.766 16.032c-7.188 4.154-16.38 1.688-20.53-5.5s-1.688-16.38 5.5-20.53l27.766-16.032c7.666-4.428 17.742-1.090 21.288 6.998 3.034 6.918 0.28 15.258-6.258 19.032zM423.826 682.167h-32.062c-8.302 0-15.030-6.73-15.030-15.030s6.73-15.030 15.030-15.030h32.062c8.3 0 15.030 6.73 15.030 15.030s-6.728 15.030-15.030 15.030zM454.024 610.525c-4.15 7.19-13.342 9.654-20.53 5.502l-27.766-16.032c-6.538-3.774-9.292-12.114-6.258-19.036 3.544-8.088 13.62-11.426 21.288-6.998l27.766 16.032c7.188 4.152 9.65 13.344 5.5 20.532zM495.466 569.083c-7.192 4.154-16.382 1.69-20.532-5.5l-16.032-27.766c-3.776-6.538-1.99-15.138 4.098-19.614 7.13-5.242 17.516-3.068 21.934 4.584l16.032 27.766c4.152 7.188 1.688 16.38-5.5 20.53zM552.078 553.915c-8.302 0-15.030-6.73-15.030-15.030v-32.062c0-8.3 6.728-15.030 15.030-15.030s15.030 6.73 15.030 15.030v32.064c-0.002 8.3-6.728 15.028-15.030 15.028zM645.252 535.817l-16.032 27.766c-4.152 7.19-13.348 9.652-20.532 5.5-7.188-4.15-9.65-13.342-5.5-20.53l16.032-27.766c4.416-7.652 14.804-9.828 21.934-4.584 6.086 4.476 7.87 13.074 4.098 19.614zM698.426 599.997l-27.766 16.032c-7.194 4.152-16.382 1.688-20.53-5.5-4.15-7.19-1.688-16.382 5.5-20.532l27.766-16.032c7.67-4.426 17.74-1.092 21.288 6.998 3.034 6.918 0.278 15.26-6.258 19.034zM712.39 682.167h-32.062c-8.302 0-15.030-6.73-15.030-15.030s6.728-15.030 15.030-15.030h32.062c8.302 0 15.030 6.73 15.030 15.030s-6.728 15.030-15.030 15.030zM703.928 754.805c-4.148 7.19-13.344 9.654-20.53 5.502l-27.766-16.032c-6.538-3.776-9.292-12.114-6.258-19.036 3.544-8.088 13.62-11.426 21.288-6.998l27.766 16.032c7.188 4.152 9.65 13.344 5.5 20.532zM639.748 818.985c-7.194 4.152-16.384 1.688-20.53-5.5l-16.032-27.766c-5.666-9.81 1.602-22.546 13.002-22.546 5.194 0 10.246 2.698 13.030 7.516l16.032 27.766c4.15 7.188 1.686 16.38-5.502 20.53zM844.898 291.301l-94.008 94.008c-52.278 52.276-135.222 55.626-191.442 10.068l-69.284 69.284c-18.152 18.154-48.444 18.154-66.598 0-4.188-4.188-7.476-9.030-9.8-14.29l-25.626 25.626c-18.36 18.36-48.236 18.36-66.598 0-4.188-4.188-7.476-9.030-9.8-14.29l-14.29 14.29c-18.362 18.36-48.236 18.36-66.598 0-18.154-18.154-18.154-48.444 0-66.598l13.704-13.704c-4.546-1.978-8.858-4.676-12.712-8.184-19.596-17.836-20.412-49.378-1.634-68.158l23.312-23.312c5.79-5.792 15.464-5.79 21.254 0s5.792 15.464 0 21.254l-23.312 23.312c-7.078 7.078-6.432 19.176 1.456 25.39 6.91 5.442 17.2 4.132 23.27-1.934l68.99-68.992c1.808-24.164 21.938-43.362 46.594-43.55l121.224-0.912c0.040 0 0.078 0 0.116 0 8.248 0 14.966 6.656 15.028 14.918 0.062 8.3-6.616 15.080-14.916 15.142l-121.226 0.912c-9.392 0.070-16.978 7.77-16.906 17.162 0.070 9.348 7.698 16.906 17.032 16.906 0.042 0 0.086 0 0.128 0l117.702-0.886c4.934-1.208 10.358 0.1 14.214 3.952l45.34 45.342c44.148 44.142 115.978 44.142 160.118 0l94.008-94.008c6.114-6.112 16.434-5.702 22.056 0.862 5.036 5.88 4.674 14.918-0.796 20.39zM355.102 327.661l-102.994 102.994c-6.566 6.564-6.564 17.524 0 24.090 6.642 6.638 17.448 6.638 24.090 0l109.488-109.488c-12.356-1.7-23.206-8.214-30.584-17.596zM427.92 345.441c-0.262 0.308-0.526 0.614-0.818 0.904l-84.31 84.312c-6.562 6.562-6.56 17.522 0.002 24.088 6.64 6.638 17.448 6.638 24.090 0l56.658-56.658c0.006-0.006 0.012-0.014 0.020-0.020l52.99-52.99-48.632 0.364zM513.54 350.593l-68.738 68.74c-3.206 3.216-4.974 7.486-4.974 12.030 0 14.874 18.562 22.56 29.078 12.044l68.722-68.724-24.088-24.090zM742.872 189.283l-48.666 48.662c-3.554 3.552-8.646 5.094-13.574 4.11l-111.9-22.38h-196.332l-40.942 40.942c-5.87 5.87-15.386 5.87-21.254 0-5.87-5.87-5.87-15.386 0-21.254l45.342-45.342c2.818-2.82 6.64-4.402 10.626-4.402h204.048c0.99 0 1.976 0.098 2.948 0.292l105.472 21.096 42.974-42.976c6.112-6.112 16.434-5.702 22.056 0.862 5.036 5.88 4.672 14.92-0.798 20.39z" />
<glyph unicode="&#xe90e;" glyph-name="instagram" d="M704 938.667h-384c-176.704 0-320-143.296-320-320v-384c0-176.704 143.296-320 320-320h384c176.704 0 320 143.296 320 320v384c0 176.704-143.296 320-320 320zM928 234.667c0-123.52-100.48-224-224-224h-384c-123.52 0-224 100.48-224 224v384c0 123.52 100.48 224 224 224h384c123.52 0 224-100.48 224-224v-384zM512 682.667c-141.376 0-256-114.624-256-256s114.624-256 256-256 256 114.624 256 256-114.624 256-256 256zM512 266.667c-88.192 0-160 71.808-160 160 0 88.256 71.808 160 160 160s160-71.744 160-160c0-88.192-71.808-160-160-160zM821.312 701.867c0-18.84-15.272-34.112-34.112-34.112s-34.112 15.272-34.112 34.112c0 18.84 15.272 34.112 34.112 34.112s34.112-15.272 34.112-34.112z" />
<glyph unicode="&#xe90f;" glyph-name="keyboard-left" d="M818.705 793.468h-613.415c-29.512 0-53.526-23.998-53.526-53.496v-626.615c0-29.507 23.998-53.521 53.526-53.521h613.415c29.507 0 53.521 24 53.521 53.521v626.615c-0.019 29.498-24.014 53.496-53.521 53.496zM213.26 573.418l204.044 156.833c1.522 1.189 3.322 1.753 5.083 1.753 1.737 0 3.498-0.564 5.001-1.693 2.996-2.198 4.122-6.198 2.754-9.683l-41.043-103.888h240.435c4.586 0 8.361-3.712 8.312-8.318v-83.255c0.016-4.581-3.726-8.285-8.328-8.315l-240.438 0.030 41.032-103.896c1.362-3.474 0.233-7.452-2.754-9.71-3.001-2.255-7.11-2.255-10.087 0.030l-204.014 156.901c-2.052 1.596-3.256 4.038-3.256 6.622 0.003 2.594 1.221 5.026 3.259 6.589zM919.078 938.667h-814.165c-53.1 0-96.167-43.064-96.167-96.159v-831.66c0-53.116 43.067-96.181 96.167-96.181h814.176c53.105 0 96.167 43.064 96.167 96.181v831.66c-0.003 53.094-43.062 96.159-96.178 96.159zM910.134 113.357c0-50.4-41.013-91.429-91.429-91.429h-613.415c-50.405 0-91.437 41.016-91.437 91.429v626.615c0 50.392 41.016 91.421 91.437 91.421h613.415c50.4 0 91.429-41.016 91.429-91.421v-626.615z" />
<glyph unicode="&#xe910;" glyph-name="keyboard-right" d="M818.725 793.469h-613.423c-29.513 0-53.509-23.997-53.509-53.495v-626.609c0-29.52 23.997-53.531 53.509-53.531h613.423c29.491 0 53.49 23.997 53.49 53.531v626.609c-0.002 29.498-24.001 53.495-53.49 53.495zM640.873 551.787l-204.046-156.86c-1.522-1.173-3.319-1.753-5.080-1.739-1.736 0-3.497 0.549-5.004 1.678-3 2.214-4.121 6.192-2.756 9.684l41.045 103.887h-240.45c-4.597 0-8.367 3.712-8.323 8.316v83.254c-0.015 4.597 3.726 8.301 8.338 8.338l240.433-0.037-41.028 103.887c-1.366 3.482-0.246 7.44 2.753 9.703 2.978 2.266 7.099 2.266 10.084-0.029l204.031-156.863c2.048-1.58 3.251-4.046 3.251-6.614-0.012-2.604-1.229-5.053-3.248-6.606zM919.076 938.667h-814.15c-53.102 0-96.181-43.062-96.181-96.157v-831.65c0-53.131 43.079-96.193 96.179-96.193h814.15c53.102 0 96.179 43.062 96.179 96.193v831.65c0.002 53.095-43.074 96.157-96.176 96.157zM910.136 113.365c0-50.398-41.014-91.428-91.411-91.428h-613.423c-50.407 0-91.435 41.014-91.435 91.428v626.609c0 50.39 41.014 91.421 91.435 91.421h613.423c50.383 0 91.411-41.014 91.411-91.421v-626.609z" />
<glyph unicode="&#xe911;" glyph-name="like" d="M988.798 372.263c23.465 26.877 35.202 58.661 35.202 95.358 0 33.279-12.176 62.075-36.446 86.407-24.319 24.33-53.115 36.489-86.394 36.489h-177.271c1.704 5.972 3.412 11.091 5.115 15.357 1.688 4.266 4.060 8.964 7.034 14.084 2.977 5.122 5.118 8.964 6.393 11.52 7.678 14.499 13.555 26.453 17.612 35.832 4.051 9.397 8.083 22.192 12.15 38.406 4.060 16.205 6.077 32.425 6.077 48.639 0 10.235-0.123 18.563-0.325 24.958-0.2 6.4-1.287 16.003-3.19 28.805-1.932 12.795-4.497 23.463-7.689 31.992-3.206 8.532-8.33 18.139-15.357 28.798-7.043 10.679-15.572 19.307-25.608 25.924-10.033 6.613-22.829 12.159-38.401 16.635-15.588 4.481-33.178 6.72-52.817 6.72-11.091 0-20.683-4.055-28.798-12.163-8.532-8.532-15.797-19.197-21.764-31.992-5.976-12.802-10.139-23.896-12.488-33.286-2.347-9.386-5.017-22.403-7.991-39.038-3.853-17.928-6.72-30.827-8.653-38.719-1.917-7.893-5.66-18.238-11.201-31.035-5.552-12.806-12.159-23.039-19.841-30.724-14.077-14.077-35.621-39.679-64.641-76.795-20.912-27.303-42.456-53.115-64.641-77.437-22.19-24.326-38.401-36.91-48.639-37.764-10.659-0.852-19.834-5.225-27.516-13.122-7.682-7.893-11.522-17.175-11.522-27.839v-410.238c0-11.094 4.051-20.582 12.159-28.475 8.103-7.902 17.704-12.060 28.798-12.488 14.931-0.428 48.639-9.805 101.121-28.168 32.849-11.076 58.551-19.515 77.111-25.267 18.556-5.752 44.494-11.943 77.748-18.565 33.286-6.611 64-9.926 92.153-9.926h82.561c56.76 0.852 98.768 17.498 126.084 49.916 24.738 29.444 35.187 68.058 31.36 115.844 16.637 15.785 28.166 35.83 34.557 60.156 7.243 26.012 7.243 50.974 0 74.863 19.623 26.027 28.798 55.254 27.509 87.681 0.054 13.667-3.138 29.876-9.552 48.656zM225.282 508.582h-184.314c-11.1 0-20.701-4.055-28.807-12.163-8.106-8.103-12.161-17.704-12.161-28.798v-409.614c0-11.078 4.055-20.683 12.163-28.798 8.112-8.094 17.713-12.152 28.807-12.152h184.312c11.091 0 20.688 4.057 28.798 12.152 8.106 8.115 12.159 17.718 12.159 28.798v409.614c0 11.094-4.055 20.692-12.159 28.798-8.108 8.11-17.704 12.163-28.798 12.163zM151.679 110.822c-8.106-7.893-17.704-11.838-28.798-11.838-11.522 0-21.23 3.945-29.119 11.838-7.893 7.893-11.838 17.597-11.838 29.119 0 11.091 3.943 20.695 11.838 28.798 7.89 8.108 17.597 12.167 29.119 12.167 11.094 0 20.692-4.060 28.798-12.167 8.108-8.101 12.163-17.704 12.163-28.798 0-11.522-4.046-21.224-12.163-29.119z" />
<glyph unicode="&#xe912;" glyph-name="linkedin" d="M512 938.667c-282.771 0-512-229.229-512-512s229.229-512 512-512 512 229.229 512 512-229.229 512-512 512zM320.158 80.016h-143.936v463.11h143.936v-463.11zM248.222 606.43c-46.135 0-83.481 37.398-83.481 83.47 0.010 46.030 37.346 83.429 83.481 83.429 46.009 0 83.408-37.398 83.408-83.429 0-46.083-37.409-83.47-83.408-83.47zM859.249 80.016h-143.821v225.217c0 53.709-0.995 122.786-74.817 122.786-74.859 0-86.372-58.496-86.372-118.899v-229.093h-143.81v463.099h138.049v-63.284h1.938c19.223 36.414 66.154 74.797 136.184 74.797 145.748 0 172.65-95.916 172.65-220.608v-254.015z" />
<glyph unicode="&#xe913;" glyph-name="login" d="M505.297 938.667c-108.699 0-212.554-33.658-300.329-97.335-10.057-7.296-12.788-21.104-6.272-31.682l82.441-133.741c3.468-5.623 9.123-9.55 15.605-10.83 6.475-1.283 13.202 0.197 18.549 4.072 51.31 37.223 112.026 56.896 175.583 56.896 165.078 0 299.377-134.299 299.377-299.377s-134.299-299.377-299.377-299.377c-63.56 0-124.276 19.673-175.583 56.896-5.348 3.882-12.074 5.351-18.549 4.072-6.482-1.279-12.136-5.21-15.605-10.83l-82.441-133.748c-6.516-10.578-3.786-24.386 6.272-31.682 87.774-63.678 191.629-97.335 300.329-97.335 282.317 0 512 229.683 512 512s-229.679 512-512 512zM372.329 259.017c-4.858-7.285-5.313-16.653-1.176-24.376 4.13-7.72 12.174-12.54 20.932-12.54h160.73c7.937 0 15.353 3.968 19.756 10.574l120.546 180.82c5.32 7.978 5.32 18.363 0 26.341l-120.546 180.82c-4.403 6.606-11.819 10.574-19.756 10.574h-160.73c-8.757 0-16.801-4.82-20.932-12.54-4.134-7.723-3.682-17.091 1.176-24.376l55.755-83.634h-337.365c-46.328 0-84.016-37.688-84.016-84.016s37.688-84.016 84.016-84.016h337.365l-55.755-83.634z" />
<glyph unicode="&#xe914;" glyph-name="logout" d="M534.411 916.256c-103.941 0-203.248-32.185-287.182-93.074-9.616-6.975-12.229-20.18-5.996-30.296l78.827-127.886c3.317-5.375 8.723-9.133 14.922-10.357 6.192-1.221 12.622 0.186 17.739 3.893 49.062 35.592 107.12 54.406 167.902 54.406 157.851 0 286.272-128.421 286.272-286.272s-128.421-286.272-286.272-286.272c-60.781 0-118.839 18.811-167.902 54.406-5.117 3.71-11.547 5.123-17.739 3.893-6.199-1.224-11.605-4.979-14.922-10.357l-78.827-127.89c-6.234-10.116-3.62-23.318 5.996-30.296 83.934-60.892 183.241-93.077 287.182-93.077 269.96 0 489.589 219.629 489.589 489.589s-219.629 489.589-489.589 489.589zM311.686 243.047c3.955 7.385 3.52 16.343-1.124 23.307l-53.314 79.972h322.598c44.301 0 80.341 36.040 80.341 80.341s-36.040 80.341-80.341 80.341h-322.598l53.314 79.972c4.648 6.965 5.079 15.922 1.124 23.307-3.951 7.382-11.643 11.991-20.018 11.991h-153.69c-7.589 0-14.681-3.793-18.891-10.112l-115.274-172.904c-5.086-7.627-5.086-17.56 0-25.19l115.271-172.904c4.21-6.316 11.302-10.112 18.891-10.112h153.693c8.378 0 16.070 4.61 20.018 11.991z" />
<glyph unicode="&#xe915;" glyph-name="mail" d="M511.991 938.667c-282.76 0-511.988-229.235-511.988-511.995 0-282.753 229.228-512.005 511.988-512.005s512.005 229.252 512.005 512.005c0 282.76-229.245 511.995-512.005 511.995zM495.942 596.788h381.833c2.604 0 5.127-0.311 7.595-0.761l-213.841-122.939-180.786 123.178c1.72 0.212 3.41 0.522 5.199 0.522zM206.754 306.136v53.105h170.399l-2.079-17.227-0.382-3.178v-3.195c0-10.305 1.71-20.211 4.772-29.505h-172.71zM383.297 410.134h-234.089v53.119h240.523l-6.434-53.119zM401.313 559.039l-3.294-27.187h-300.448v53.119h308.514c-2.727-8.216-4.41-16.903-4.772-25.931zM851.209 294.046h-381.826c-11.428 0-21.77 4.611-29.287 12.076 0 0 0 0 0 0.010-1.84 1.833-3.506 3.85-4.984 6.001-0.034 0.055-0.099 0.106-0.133 0.16-1.372 2.028-2.516 4.205-3.523 6.455-0.099 0.222-0.249 0.416-0.355 0.645-0.905 2.123-1.539 4.383-2.079 6.677-0.099 0.399-0.283 0.761-0.362 1.161-0.556 2.727-0.85 5.533-0.85 8.411l15.442 127.622 11.121 91.956c0 2.628 0.317 5.171 0.788 7.656 0.055 0.266 0.027 0.556 0.089 0.823 0.034-0.017 0.061-0.044 0.099-0.072 1.195 5.673 3.454 10.943 6.683 15.521v-20.071l197.091-133.572c0.266-0.184 0.556-0.283 0.833-0.444 0.283-0.177 0.577-0.317 0.877-0.478 1.556-0.795 3.151-1.434 4.782-1.86 0.177-0.044 0.338-0.072 0.512-0.106 1.789-0.423 3.605-0.683 5.4-0.683h0.017c0.017 0 0.027 0 0.034 0 1.799 0 3.611 0.256 5.4 0.683 0.177 0.034 0.338 0.061 0.512 0.106 1.628 0.423 3.222 1.062 4.782 1.86 0.294 0.16 0.584 0.3 0.877 0.478 0.273 0.16 0.556 0.256 0.833 0.444l234.812 135.565c0.273-1.929 0.584-3.85 0.584-5.861l-26.559-219.579c-0.024-22.975-18.64-41.585-41.612-41.585z" />
<glyph unicode="&#xe916;" glyph-name="masks" d="M1005.517 575.638c-1.783 7.083-6.483 13.064-12.917 16.518-6.416 3.432-14.001 4.014-20.883 1.597-60.333-21.197-153.42-34.836-258.115-34.836-25.453 0-49.984 0.972-73.769 2.502-12.298-55.563-31.95-106.582-57.050-151.516 1.221 0.050 2.387 0.249 3.618 0.249 32.534 0 58.9 2.714 58.9-19.201s-26.369-60.166-58.9-60.166c-18.95 0-35.635 6.133-46.401 15.499-32.514-40.368-70.499-72.198-112.332-93.248 47.165-158.754 157.434-270.121 285.934-270.121 171.431 0 310.4 198.189 310.4 442.669-0.002 52.737-6.587 103.202-18.485 150.055zM837.302 112.17c-0.55-2.333-2.285-4.235-4.566-4.984-2.285-0.764-4.8-0.283-6.635 1.268-24.181 20.318-65.314 33.817-112.496 33.817-47.186 0-88.32-13.499-112.499-33.817-1.837-1.534-4.354-2.017-6.635-1.268-2.283 0.766-4.016 2.651-4.566 4.984-2.002 8.518-3.233 17.299-3.233 26.433 0 70.103 56.834 126.933 126.935 126.933s126.93-56.831 126.93-126.933c-0.004-9.134-1.236-17.918-3.235-26.433zM840.801 330.786c-32.534 0-58.9 38.251-58.9 60.166s26.369 19.201 58.9 19.201c32.532 0 58.9-17.769 58.9-39.684-0.002-21.915-26.369-39.684-58.9-39.684zM620.8 700.787c0 52.731-6.585 103.198-18.483 150.049-1.783 7.083-6.483 13.069-12.917 16.518-3.8 2.032-8.018 3.064-12.268 3.064-2.902 0-5.817-0.478-8.615-1.467-60.333-21.197-153.418-34.832-258.115-34.832-104.699 0-197.785 13.635-258.117 34.832-2.783 0.989-5.683 1.467-8.582 1.467-4.248 0-8.485-1.043-12.302-3.082-6.416-3.449-11.132-9.433-12.917-16.501-11.898-46.853-18.483-97.318-18.483-150.049 0-244.484 138.967-442.669 310.402-442.669 171.431 0 310.398 198.185 310.398 442.669zM124.299 645.769c0 21.919 26.369 39.684 58.902 39.684 32.532 0 58.9-38.247 58.9-60.166 0-21.915-26.369-19.201-58.9-19.201-32.534 0-58.902 17.769-58.902 39.684zM310.402 341.805c-70.103 0-126.933 56.831-126.933 126.928 0 9.134 1.231 17.92 3.231 26.438 0.55 2.328 2.285 4.213 4.566 4.984 2.285 0.749 4.8 0.266 6.635-1.268 24.181-20.318 65.314-33.817 112.499-33.817s88.318 13.499 112.496 33.817c1.837 1.552 4.352 2.032 6.635 1.268 2.283-0.753 4.016-2.655 4.566-4.984 2-8.518 3.233-17.303 3.233-26.438 0.002-70.097-56.829-126.928-126.928-126.928zM378.699 625.287c0 21.919 26.369 60.166 58.902 60.166 32.532 0 58.9-17.764 58.9-39.684 0-21.915-26.369-39.684-58.9-39.684-32.534 0-58.902-2.714-58.902 19.201z" />
<glyph unicode="&#xe917;" glyph-name="mouse-wheel" d="M527.789 648.393c-0.262 23.615 10.69 42.023 21.309 59.927 14.061 23.666 28.591 48.154 18.497 81.812-10.288 30.863-29.78 46.024-47.019 59.473-23.23 18.009-39.98 31.037-31.247 80.432l0.752 4.227-24.994 4.403-0.752-4.209c-11.388-64.521 16.262-85.97 40.644-104.92 15.738-12.278 30.618-23.843 38.392-47.054 6.777-22.672-3.318-39.683-16.086-61.22-11.876-20.016-25.308-42.582-24.994-72.834-126.631-0.14-255.986-5.38-255.986-455.382 0-202.802 162.962-278.378 265.698-278.378 102.685 0 265.698 75.559 265.698 278.378-0.037 449.426-131.891 454.961-249.911 455.346zM524.645 622.997c104.501-0.228 202.366-4.366 223.413-299.146-71.489-33.413-146.612-51.194-223.413-52.958v54.914c15.649 3.021 27.422 16.855 27.422 33.029v165.861c0 16.225-11.79 30.025-27.422 33.046v65.256zM505.625 533.080h12.68c4.611 0 8.367-3.79 8.367-8.402v-165.861c0-4.611-3.756-8.331-8.367-8.331h-12.68c-4.611 0-8.367 3.72-8.367 8.331v165.861c0.002 4.611 3.756 8.402 8.367 8.402zM499.249 622.997v-65.29c-15.649-3.004-27.388-16.838-27.388-33.046v-165.861c0-16.174 11.737-30.007 27.388-33.029v-54.914c-116.867 2.742-201.964 41.71-223.413 52.574 20.961 295.216 118.861 299.357 223.413 299.565zM593.689 571.612l-24.855-30.375h49.675zM594.564 311.397l24.818 30.375h-49.621z" />
<glyph unicode="&#xe918;" glyph-name="music" d="M980.433 934.031c-4.022 3.519-9.328 5.12-14.69 4.487l-577.164-74.678c-9.272-1.21-16.216-9.086-16.216-18.451v-663.049c-33.997 40.867-88.008 67.454-148.945 67.454-102.661 0-186.182-75.162-186.182-167.564s83.521-167.564 186.182-167.564 186.182 75.162 186.182 167.564c0 4.319-0.354 8.564-0.726 12.791 0.242 1.21 0.726 2.309 0.726 3.575v539.983l539.927 69.874v-339.912c-33.997 40.848-88.008 67.435-148.945 67.435-102.661 0-186.182-75.162-186.182-167.564s83.521-167.564 186.182-167.564c101.73 0 184.562 73.84 186.051 165.087 0 0.242 0.13 0.447 0.13 0.689v653.424c0 5.362-2.309 10.463-6.33 13.982z" />
<glyph unicode="&#xe919;" glyph-name="nature" d="M834.279 352.664c-27.062 9.321-51.631 13.808-73.725 13.418-22.082-0.382-44.48-4.193-67.139-11.424-22.67-7.233-41.616-15.233-56.841-23.999-15.253-8.768-29.998-18.76-44.28-29.994-14.288-11.238-23.719-19.048-28.288-23.431-4.573-4.381-8.006-7.904-10.287-10.574 19.042 51.815 32.952 105.716 41.704 161.717l9.719-1.711c6.479-1.145 15.329-2.001 26.567-2.576 11.24-0.574 24.103-0.761 38.574-0.574 14.46 0.192 29.713 1.999 45.721 5.43 16 3.428 32.095 8 48.287 13.718 16.206 5.706 31.713 14.376 46.562 25.997 14.863 11.616 28.11 25.236 39.727 40.856s21.137 35.524 28.563 59.715c7.453 24.181 11.548 51.137 12.289 80.852-25.893 8.76-51.139 13.332-75.713 13.712-24.574 0.386-45.905-2.388-64-8.284s-35.506-14.376-52.288-25.424c-16.752-11.048-30.274-21.624-40.573-31.709-10.275-10.093-19.904-21.139-28.835-33.14-8.952-12.001-14.761-20.185-17.425-24.568-2.672-4.383-4.569-7.904-5.718-10.568 0.39 9.903 0.574 23.523 0.574 40.856 0 17.329-0.184 26.951-0.574 28.853l3.999 8.572c3.062 5.714 6.297 13.718 9.725 23.999 3.424 10.287 7.047 22.092 10.858 35.424 3.807 13.336 6.281 27.908 7.423 43.72 1.151 15.807 1.247 32.093 0.288 48.855-0.945 16.764-4.85 33.716-11.712 50.857-6.857 17.14-16 33.336-27.424 48.569-11.424 15.243-27.52 29.814-48.287 43.72-20.769 13.906-45.055 25.617-72.865 35.141-19.428-25.907-32.76-52.288-39.997-79.143-7.239-26.853-9.527-51.045-6.859-72.568 2.666-21.528 8.948-42.951 18.852-64.288 9.905-21.335 20.185-39.048 30.854-53.142 10.668-14.096 22.766-27.712 36.28-40.858 13.528-13.143 22.871-21.616 28-25.424 5.142-3.815 9.225-6.855 12.287-9.143 0-27.808-2.288-64.955-6.871-111.427l-2.274 9.141c-1.911 5.714-4.96 13.24-9.151 22.568s-9.425 19.996-15.713 31.995c-6.281 12.001-14.284 24.003-23.995 36.004-9.705 12.001-20.373 23.613-31.995 34.857-11.612 11.236-25.613 20.761-41.996 28.569-16.388 7.804-33.905 13.52-52.576 17.14-18.671 3.627-40.099 3.807-64.288 0.574-24.191-3.24-49.616-10.191-76.279-20.859 2.284-26.665 7.716-50.953 16.284-72.855 8.572-21.904 18.952-39.905 31.141-53.999 12.185-14.090 26.479-26.469 42.857-37.137 16.384-10.668 32.379-18.76 47.999-24.288s32.473-9.911 50.569-13.143c18.097-3.24 33.616-5.144 46.572-5.716 12.955-0.574 26.187-0.674 39.713-0.288 13.52 0.384 22.382 0.853 26.575 1.429 4.199 0.574 7.624 1.047 10.295 1.431-9.917-60.944-24.966-116.382-45.155-166.28-9.525 16.774-20.291 32.385-32.291 46.87-12.001 14.466-28.853 29.131-50.569 43.988-21.724 14.863-45.435 25.617-71.147 32.287-25.719 6.657-57.616 8.096-95.715 4.289-38.1-3.823-78.855-14.679-122.282-32.59 12.575-31.615 26.763-59.423 42.573-83.43 15.811-23.985 31.899-43.049 48.285-57.145 16.384-14.096 33.911-25.328 52.576-33.718 18.659-8.378 36.38-13.802 53.14-16.282 16.762-2.472 34.095-2.946 52-1.425 17.907 1.529 33.708 4.015 47.428 7.431 13.712 3.432 27.424 7.808 41.14 13.15-38.862-71.622-86.763-127.716-143.716-168.278-56.951-40.575-118.382-61.056-184.283-61.438-7.239 0-13.336-2.378-18.285-7.149-4.952-4.761-7.427-10.754-7.427-17.993 0-7.233 2.476-13.322 7.427-18.281 4.95-4.946 11.046-7.431 18.285-7.431 79.231 0.388 152.474 25.609 219.707 75.711 67.239 50.102 122.382 118.574 165.426 205.424l9.719-5.706c6.096-3.809 14.863-8.090 26.287-12.849 11.424-4.767 24.664-10.007 39.713-15.713 15.049-5.718 31.513-9.903 49.424-12.567 17.903-2.68 36.288-4.289 55.144-4.866 18.858-0.566 38.192 2.186 58.006 8.296 19.806 6.096 38.664 14.959 56.555 26.575 17.903 11.61 35.245 28.479 52 50.577 16.774 22.080 31.245 48.361 43.437 78.841-25.164 20.181-51.253 34.941-78.287 44.27z" />
<glyph unicode="&#xe91a;" glyph-name="new" d="M379.312 308.809c-13.825 0-25.032-11.207-25.032-25.032v-113.515l-95.217 128.423c-6.433 8.679-17.705 12.244-27.957 8.861-10.256-3.386-17.182-12.97-17.182-23.769v-175.454c0-13.825 11.207-25.032 25.032-25.032s25.032 11.207 25.032 25.032v99.665l95.217-128.423c4.813-6.49 12.333-10.127 20.111-10.127 2.618 0 5.264 0.411 7.846 1.266 10.256 3.386 17.182 12.97 17.182 23.769v189.304c0 13.825-11.207 25.032-25.032 25.032zM785.047 308.809c-13.825 0-25.032-11.207-25.032-25.032v-77.802l-15.577 28.386c-4.345 7.917-12.62 12.884-21.656 12.988-8.911 0.232-17.422-4.663-21.949-12.48l-19.353-33.403v82.315c0 13.825-11.207 25.032-25.032 25.032s-25.032-11.207-25.032-25.032v-175.454c0-11.325 7.599-21.234 18.534-24.173 10.942-2.936 22.482 1.827 28.157 11.625l43.791 75.589 41.199-75.084c4.47-8.15 12.966-12.991 21.942-12.991 2.063 0 4.152 0.254 6.219 0.787 11.071 2.839 18.817 12.816 18.817 24.249v175.454c0.004 13.821-11.203 25.028-25.028 25.028zM574.202 258.745c13.825 0 25.032 11.207 25.032 25.032s-11.207 25.032-25.032 25.032h-104.307c-13.825 0-25.032-11.207-25.032-25.032v-175.454c0-13.825 11.207-25.032 25.032-25.032h104.307c13.825 0 25.032 11.207 25.032 25.032s-11.207 25.032-25.032 25.032h-79.275v37.662h79.275c13.825 0 25.032 11.207 25.032 25.032s-11.207 25.032-25.032 25.032h-79.275v37.666h79.275zM869.326 460.319l-337.012 467.946c-4.706 6.53-12.262 10.402-20.311 10.402s-15.609-3.873-20.311-10.402l-337.016-467.946c-46.627-11.765-81.242-54.047-81.242-104.275v-333.837c0-59.3 48.243-107.54 107.543-107.54h662.056c59.3 0 107.543 48.243 107.543 107.54v333.837c-0.004 50.228-34.622 92.51-81.249 104.275zM512.002 870.803l293.278-407.216h-586.56l293.282 407.216zM900.508 22.207c0-31.694-25.783-57.476-57.48-57.476h-662.056c-31.694 0-57.48 25.783-57.48 57.476v333.837c0 31.694 25.783 57.476 57.48 57.476h662.056c31.694 0 57.48-25.783 57.48-57.476v-333.837zM169.854 394.060c-6.58 0-13.052-2.646-17.701-7.331-4.685-4.649-7.331-11.085-7.331-17.701 0-6.58 2.646-13.016 7.331-17.701 4.649-4.649 11.121-7.331 17.701-7.331s13.016 2.682 17.701 7.331c4.649 4.685 7.331 11.121 7.331 17.701 0 6.616-2.682 13.052-7.331 17.701-4.685 4.685-11.125 7.331-17.701 7.331zM854.146 394.060c-6.58 0-13.052-2.646-17.701-7.331-4.649-4.649-7.331-11.085-7.331-17.701 0-6.58 2.682-13.016 7.331-17.701 4.685-4.649 11.121-7.331 17.701-7.331s13.052 2.682 17.701 7.331c4.685 4.685 7.331 11.121 7.331 17.701 0 6.616-2.646 13.052-7.331 17.701-4.645 4.685-11.118 7.331-17.701 7.331z" />
<glyph unicode="&#xe91b;" glyph-name="password" d="M168.283 159.506c-3.997 6.942-13.042 9.256-19.984 5.259l-36.601-21.246v42.281c0 7.993-6.521 14.514-14.514 14.514s-14.514-6.521-14.514-14.514v-42.281l-36.601 21.246c-6.942 3.997-15.987 1.683-19.984-5.259s-1.683-15.987 5.259-19.984l36.812-21.456-36.812-21.456c-6.942-3.997-9.256-13.042-5.259-19.984s13.042-9.256 19.984-5.259l36.601 21.246v-42.281c0-7.993 6.521-14.514 14.514-14.514s14.514 6.521 14.514 14.514v42.281l36.601-21.246c6.942-3.997 15.987-1.683 19.984 5.259s1.683 15.987-5.259 19.984l-36.812 21.456 36.812 21.456c6.942 4.207 9.466 13.042 5.259 19.984zM302.698 76.837c3.997-6.942 13.042-9.256 19.984-5.259l36.601 21.246v-42.281c0-7.993 6.521-14.514 14.514-14.514s14.514 6.521 14.514 14.514v42.281l36.601-21.246c6.942-3.997 15.987-1.683 19.984 5.259s1.683 15.987-5.259 19.984l-36.812 21.456 36.812 21.456c6.942 3.997 9.256 13.042 5.259 19.984s-13.042 9.256-19.984 5.259l-36.601-21.246v42.281c0 7.993-6.521 14.514-14.514 14.514s-14.514-6.521-14.514-14.514v-42.281l-36.601 21.035c-6.942 3.997-15.987 1.683-19.984-5.259s-1.683-15.987 5.259-19.984l36.812-21.456-36.812-21.246c-6.942-3.997-9.256-13.042-5.259-19.984zM276.615-33.388v-25.663c0-6.1 5.048-11.149 11.149-11.149h172.279c6.1 0 11.149 5.048 11.149 11.149v25.663c0 6.1-5.048 11.149-11.149 11.149h-172.279c-6.311 0-11.149-5.048-11.149-11.149zM696.48 683.916h-1.262v57.216c0 99.497-81.407 184.059-180.694 182.376-96.552-1.683-174.804-80.776-174.804-177.749v-5.469c0-8.204 6.731-14.935 14.935-14.935h47.75c8.204 0 14.935 6.731 14.935 14.935v1.683c0 53.43 40.177 100.339 93.607 103.704 58.058 3.576 106.439-42.491 106.439-99.707v-61.844h-147.247v-0.21h-136.099c-25.242-0.841-45.647-21.246-45.647-46.698v-258.735c0-25.873 21.035-46.909 46.909-46.909h360.966c25.873 0 46.909 21.035 46.909 46.909v258.524c0.21 25.873-20.825 46.909-46.698 46.909zM543.763 496.071c-3.576-2.524-4.628-5.259-4.628-9.466 0.21-18.932 0.21-37.864 0-57.006v0c0.421-7.993-3.576-15.566-10.728-19.142-16.618-8.414-33.236 3.366-33.236 19.142 0 0 0 0 0 0.21 0 18.932 0 38.074 0 57.006 0 3.786-0.841 6.521-4.207 9.045-17.249 12.621-22.929 34.288-14.304 53.43 8.414 18.511 28.818 29.449 47.961 25.453 21.456-4.207 36.391-21.666 36.601-42.912 0.631-14.935-5.469-27.136-17.459-35.76zM553.019-33.388v-25.663c0-6.1 5.048-11.149 11.149-11.149h172.279c6.1 0 11.149 5.048 11.149 11.149v25.663c0 6.1-5.048 11.149-11.149 11.149h-172.279c-6.1 0-11.149-5.048-11.149-11.149zM579.103 76.837c3.997-6.942 13.042-9.256 19.984-5.259l36.601 21.246v-42.281c0-7.993 6.521-14.514 14.514-14.514s14.514 6.521 14.514 14.514v42.281l36.601-21.246c6.942-3.997 15.987-1.683 19.984 5.259s1.683 15.987-5.259 19.984l-36.812 21.456 36.812 21.456c6.942 3.997 9.256 13.042 5.259 19.984s-13.042 9.256-19.984 5.259l-36.601-21.246v42.281c0 7.993-6.521 14.514-14.514 14.514s-14.514-6.521-14.514-14.514v-42.281l-36.601 21.246c-6.942 3.997-15.987 1.683-19.984-5.259s-1.683-15.987 5.259-19.984l36.812-21.456-36.812-21.456c-6.942-3.997-9.256-13.042-5.259-19.984zM1012.851-22.24h-172.279c-6.1 0-11.149-5.048-11.149-11.149v-25.663c0-6.1 5.048-11.149 11.149-11.149h172.279c6.1 0 11.149 5.048 11.149 11.149v25.663c0 6.1-5.048 11.149-11.149 11.149zM11.149-70.2h172.279c6.1 0 11.149 5.048 11.149 11.149v25.663c0 6.1-5.048 11.149-11.149 11.149h-172.279c-6.1 0-11.149-5.048-11.149-11.149v-25.663c0-6.1 5.048-11.149 11.149-11.149zM855.717 76.837c3.997-6.942 13.042-9.256 19.984-5.259l36.601 21.246v-42.281c0-7.993 6.521-14.514 14.514-14.514s14.514 6.521 14.514 14.514v42.281l36.601-21.246c6.942-3.997 15.987-1.683 19.984 5.259s1.683 15.987-5.259 19.984l-36.812 21.456 36.812 21.456c6.942 3.997 9.256 13.042 5.259 19.984s-13.042 9.256-19.984 5.259l-36.601-21.246v42.281c0 7.993-6.521 14.514-14.514 14.514s-14.514-6.521-14.514-14.514v-42.281l-36.601 21.246c-6.942 3.997-15.987 1.683-19.984-5.259s-1.683-15.987 5.259-19.984l36.812-21.456-36.812-21.456c-6.942-3.997-9.466-13.042-5.259-19.984z" />
<glyph unicode="&#xe91c;" glyph-name="pinterest" d="M512 938.667c-282.76 0-512-229.229-512-512s229.24-512 512-512 512 229.229 512 512-229.24 512-512 512zM570.915 256.604c-47.361 0-91.903 25.603-107.156 54.673 0 0-25.477-101.038-30.83-120.533-18.992-68.93-74.859-137.881-79.207-143.528-3.027-3.928-9.721-2.703-10.413 2.514-1.184 8.779-15.452 95.737 1.33 166.658 8.391 35.617 56.391 238.993 56.391 238.993s-13.975 28.002-13.975 69.402c0 65.002 37.671 113.525 84.581 113.525 39.881 0 59.135-29.95 59.135-65.85 0-40.101-25.519-100.064-38.687-155.627-11.010-46.523 23.308-84.476 69.192-84.476 83.104 0 139.034 106.726 139.034 233.2 0 96.104-64.698 168.072-182.466 168.072-133.010 0-215.957-99.215-215.957-210.059 0-38.194 11.293-65.169 28.955-86.006 8.098-9.585 9.25-13.44 6.306-24.44-2.127-8.077-6.914-27.499-8.946-35.177-2.923-11.125-11.911-15.085-21.978-10.989-61.241 25.006-89.798 92.113-89.798 167.548 0 124.588 105.061 273.982 313.454 273.982 167.454 0 277.669-121.162 277.669-251.249 0.010-172.095-95.664-300.632-236.636-300.632z" />
<glyph unicode="&#xe91d;" glyph-name="popular-eye" d="M174.366 440.514c-6.911 7.558-6.276 19.169 1.119 25.994 4.695 4.265 115.233 103.714 265.453 131.887 0.179 0.060 29.531 5.173 39.512 5.721 40.751 2.44 80.117-12.486 110.441-42.18 32.644-31.688 50.423-75.563 48.939-120.384-2.19-70.228-61.958-125.818-133.87-125.818-1.451 0-2.885 0-4.314 0-30.265 0.858-58.122 13.35-78.492 35.084-19.637 20.87-29.797 47.777-28.922 75.96 1.826 49.521 45.147 86.936 95.303 86.909 21.098-0.641 40.588-9.275 54.9-24.44 13.725-14.611 20.952-33.617 20.397-53.411-1.369-35.312-30.965-61.214-67.875-62.007-10.133 0.353-18.137 8.802-17.871 18.93 0.402 9.965 8.536 17.936 18.387 17.936 0.494 0 0.88 0 1.559 0 15.523 0 28.352 11.622 28.884 26.342 0.413 9.867-3.271 19.506-10.345 26.999-7.493 8.014-17.838 12.546-29.123 12.845-28.45 0.549-56.454-22.055-57.465-51.346-0.641-18.284 6.124-35.888 18.963-49.537 13.649-14.567 32.335-22.918 52.672-23.451 1.070-0.12 2.141-0.12 3.222-0.12 52.319 0 95.499 39.904 97.069 90.359 1.119 33.954-13.029 68.723-37.698 92.864-22.902 22.256-53.362 32.976-82.752 31.813-8.878-0.581-35.008-5.319-35.008-5.319-139.472-26.048-246.18-121.917-247.245-122.873-7.395-6.629-19.18-6.129-25.842 1.244zM994.061 526.293c-16.415 9.498-44.718 15.562-86.762-9.096-8.797-5.113-11.769-16.355-6.651-25.152 5.102-8.688 16.415-11.655 25.086-6.607 21.017 12.176 38.648 15.23 50.004 8.982 8.628-4.939 11.476-14.225 11.476-17.599 0-23.799-8.786-39.963-26.211-48.043-22.967-10.764-52.64-4.173-67.087 8.177-89.571 75.618-178.62 126.236-264.426 150.415-10.063 2.809-19.99-2.978-22.728-12.671-2.793-9.764 2.972-19.903 12.665-22.701 80.812-22.799 165.2-70.94 250.772-143.178 16.942-14.48 41.148-22.087 64.919-22.087 14.513 0 28.721 2.804 41.278 8.623 30.743 14.274 47.597 43.142 47.597 81.432 0.033 16.072-9.204 37.54-29.933 49.504zM799.787 420.302c-0.772-1.076-88.142-114.413-242.312-132.099-126.611-14.812-262.492 37.518-403.702 154.898-26.754 22.125-73.727 27.287-106.974 11.894-30.15-14.236-46.799-42.544-46.799-80.041 0-16.018 9.378-37.491 29.993-49.472 16.349-9.416 44.533-15.458 86.8 9.134 8.797 5.113 11.774 16.355 6.596 25.092-5.178 8.802-16.474 11.888-25.081 6.667-20.979-12.166-38.485-15.404-49.966-8.982-8.623 4.934-11.476 14.209-11.476 17.566 0 23.049 8.585 38.714 25.57 46.701 22.261 10.53 53.748 4.771 67.837-6.797 132.555-110.213 261.921-165.901 385.158-165.901 15.757 0 31.34 0.891 46.918 2.798 169.9 19.859 263.078 141.314 266.936 146.514 6.058 8.090 4.434 19.539-3.684 25.651-8.21 6.183-19.506 4.608-25.814-3.624z" />
<glyph unicode="&#xe91e;" glyph-name="search" d="M995.866 78.532l-234.921 234.94c-35.003-54.438-81.327-100.738-135.765-135.744l234.94-234.94c37.506-37.498 98.318-37.498 135.744 0 37.508 37.437 37.508 98.248 0.002 135.744zM767.998 554.667c0 212.059-171.933 384-383.996 384-212.059 0-384-171.942-384-384s171.942-383.992 384-383.992c212.063 0 383.996 171.933 383.996 383.992zM384.002 266.678c-158.813 0-287.998 129.174-287.998 287.987s129.185 287.998 287.998 287.998c158.809 0 288.004-129.185 288.004-287.998s-129.195-287.987-288.004-287.987zM160.005 554.667h63.992c0 88.222 71.784 159.999 160.003 159.999v63.998c-123.495 0-223.995-100.5-223.995-223.997z" />
<glyph unicode="&#xe91f;" glyph-name="seasons" d="M910.484 930.565c-5.283 7.591-15.272 10.233-23.618 6.26-105.481-50.299-259.907-153.782-376.331-356.598 67.479-102.462 125.969-234.38 156.645-402.324 4.018 167.833 37.313 529.602 240.973 728.334 6.637 6.437 7.591 16.737 2.331 24.328zM214.713 785.396c-3.152 2.087-6.748 3.085-10.344 3.085-5.128 0-10.233-2.087-13.94-6.104-6.26-6.815-6.659-17.158-0.977-24.439 205.346-262.992 148.455-716.902 131.984-821.384-0.866-5.483 0.688-11.054 4.284-15.272 3.596-4.173 8.857-6.637 14.384-6.637h264.324c5.083 0 9.9 2.020 13.451 5.616s5.527 8.457 5.461 13.518c-6.126 511.179-257.132 752.373-408.628 851.617zM54.694 327.046c-3.663 2.397-8.546 1.798-11.52-1.421-2.974-3.241-3.174-8.124-0.466-11.587 97.379-124.682 70.409-339.883 62.574-389.405-0.422-2.619 0.355-5.017 2.020-7.037 1.709-1.998 4.217-2.93 6.837-2.93h125.303c2.375 0 4.684 0.755 6.371 2.442s2.619 3.907 2.597 6.304c-2.886 242.349-121.862 356.575-193.715 403.633zM979.916 481.627c-4.129 4.462-10.788 5.305-15.893 1.976-99.066-64.882-263.125-222.593-267.165-556.86-0.067-3.263 1.31-6.237 3.574-8.613 2.331-2.353 5.461-3.463 8.812-3.463h172.805c3.64 0 7.037 1.376 9.412 4.151 2.309 2.752 3.33 6.26 2.797 9.833-10.766 68.323-47.968 365.077 86.325 537.061 3.729 4.75 3.441 11.454-0.666 15.915z" />
<glyph unicode="&#xe920;" glyph-name="sport" d="M315.848 708.762h315.951c8.302 0 15.030 6.73 15.030 15.032s-6.728 15.032-15.030 15.032h-315.951c-8.302 0-15.032-6.73-15.032-15.032s6.73-15.032 15.032-15.032zM33.278 561.787h315.949c8.302 0 15.032 6.73 15.032 15.032s-6.73 15.030-15.032 15.030h-315.949c-8.302 0-15.032-6.728-15.032-15.030s6.73-15.032 15.032-15.032zM118.095 407.126c0-8.302 6.73-15.034 15.032-15.034h315.949c8.302 0 15.032 6.732 15.032 15.034s-6.73 15.030-15.032 15.030h-315.949c-8.302 0-15.032-6.728-15.032-15.030zM298.914 232.42h-283.882c-8.302 0-15.032-6.728-15.032-15.030s6.73-15.032 15.032-15.032h283.882c8.302 0 15.032 6.73 15.032 15.032s-6.73 15.030-15.032 15.030zM809.712 614.516c45.342 0 82.101 36.763 82.101 82.107s-36.761 82.105-82.101 82.105c-45.353 0-82.118-36.763-82.118-82.105-0.002-45.344 36.763-82.107 82.118-82.107zM944.767 638.159c-47.145-66.038-110.276-73.685-178.209-33.356-4.624 2.742-25.142 14.046-29.684 16.745-109.285 64.877-218.442 39.435-291.647-63.080-31.108-43.602 40.839-84.93 71.599-41.837 37.823 52.966 85.917 68.292 138.516 51.516-26.932-46.749-50.479-93.214-83.705-159.229-33.234-66.015-106.611-118.733-177.116-77.501-50.873 29.735-96.751-43.35-46.031-72.992 96.256-56.256 209.118-21.712 266.734 51.415 1.998-1.068 4.11-2.032 6.428-2.842 47.068-16.399 108.767-60.057 127.567-75.53 18.794-15.473 51.085-94.297 70.261-133.902 23.263-48.056 98.39-13.055 75.041 35.205-21.737 44.935-58.223 134.618-86.681 157.308-22.829 18.198-67.148 52.066-104.738 71.28 25.431 49.259 51.91 97.987 79.785 145.874 88.854-27.224 173.31 4.845 233.46 89.102 31.133 43.596-40.797 84.924-71.58 41.826z" />
<glyph unicode="&#xe921;" glyph-name="spring" d="M492.316 466.278c10.897-10.85 28.471-10.85 39.344 0 53.951 53.673 200.455 199.481 203.446 202.472 61.718 61.741 61.718 161.829 0 223.594-61.555 61.579-161.366 61.741-223.13 0.441-61.787 61.324-161.528 61.161-223.13-0.441-61.718-61.741-61.718-161.829 0-223.594 3.037-3.014 149.542-148.8 203.469-202.472zM531.684 387.079c-10.874 10.827-28.494 10.827-39.344-0.023-53.951-53.649-200.455-199.481-203.446-202.449-61.718-61.741-61.718-161.829 0-223.617 61.602-61.579 161.343-61.741 223.13-0.441 61.764-61.347 161.574-61.185 223.13 0.441 61.718 61.741 61.718 161.829 0 223.617-3.037 2.968-149.518 148.8-203.469 202.472zM977.665 649.808c-61.718 61.741-161.806 61.718-223.617 0.023-3.037-2.991-148.823-149.495-202.472-203.423-10.827-10.897-10.827-28.471 0.023-39.344 53.649-53.974 199.481-200.502 202.449-203.492 61.718-61.718 161.853-61.718 223.617-0.023 61.555 61.555 61.718 161.366 0.417 223.153 61.3 61.764 61.185 161.505-0.417 223.107zM472.424 406.995c10.827 10.897 10.827 28.471 0 39.344-53.673 53.951-199.505 200.455-202.472 203.446-61.764 61.741-161.829 61.741-223.594 0.023-61.579-61.602-61.741-161.343-0.464-223.153-61.3-61.764-61.138-161.574 0.464-223.13 61.764-61.741 161.806-61.718 223.594-0.023 2.991 3.037 148.8 149.542 202.472 203.492z" />
<glyph unicode="&#xe922;" glyph-name="summer" d="M1010.936 493.524l-21.076 21.099c-17.36 17.404-45.625 17.404-62.962 0l-87.667-87.667h-304.106c-19.697 0-35.676-15.98-35.676-35.676v-154.59h-454.913c-24.593-0.022-44.534-19.941-44.534-44.557v-29.823c0-24.571 19.941-44.534 44.534-44.534h116.911l-88.935-102.934c-12.908-14.912-11.239-37.457 3.65-50.321 6.744-5.831 15.045-8.724 23.324-8.724 9.993 0 19.941 4.184 26.997 12.374l88.156 102.022h412.738l92.963-92.986c13.932-13.91 36.522-13.91 50.454 0s13.932 36.544 0 50.477l-90.092 90.092h107.163c24.571 0 44.557 19.941 44.557 44.534v29.823c0 16.225-8.813 30.29-21.789 38.080l200.304 200.304c17.404 17.404 17.404 45.603 0 63.007zM570.778 355.603h197.055l-116.31-118.958h-80.789v118.958h0.045zM276.665 835.377v12.53c0 5.542-1.625 10.928-4.473 15.646l-17.226 28.666c-1.981 3.294-5.586 5.319-9.414 5.319s-7.411-2.025-9.392-5.319l-17.204-28.666c-2.827-4.718-4.318-10.126-4.318-15.646v-12.508c10.327 1.78 20.476 2.693 31.025 2.693s20.654-0.912 31.003-2.715zM214.615 485.824v-12.508c0-5.519 1.491-10.928 4.318-15.646l17.204-28.666c1.981-3.294 5.542-5.319 9.392-5.319 3.828 0 7.367 2.025 9.37 5.319l17.293 28.666c2.849 4.718 4.473 10.126 4.473 15.646v12.508c-10.349-1.78-20.498-2.715-31.047-2.715s-20.698 0.935-31.003 2.715zM390.86 762.288l8.925 8.925c3.895 3.873 6.677 8.769 7.99 14.11l8.101 32.427c0.935 3.739-0.156 7.701-2.871 10.394-2.715 2.737-6.655 3.806-10.394 2.871l-32.427-8.101c-5.341-1.335-10.216-4.095-14.133-7.99l-8.858-8.947c16.959-11.907 31.759-26.707 43.666-43.689zM100.13 558.912l-8.902-8.902c-3.895-3.873-6.677-8.769-8.012-14.11l-8.101-32.449c-0.935-3.717 0.156-7.656 2.871-10.349 2.715-2.737 6.632-3.828 10.394-2.871l32.427 8.101c5.341 1.335 10.216 4.095 14.11 8.012l8.902 8.902c-17.004 11.907-31.804 26.707-43.689 43.666zM58.2 629.308h12.508c-1.758 10.327-2.693 20.52-2.693 31.047 0 10.549 0.935 20.698 2.693 31.047h-12.508c-5.519 0-10.928-1.424-15.646-4.251l-28.666-17.159c-3.294-1.959-5.297-5.519-5.297-9.348 0-3.85 2.003-7.411 5.297-9.37l28.666-17.404c4.718-2.849 10.126-4.562 15.646-4.562zM477.103 669.992l-28.688 17.159c-4.696 2.827-10.104 4.251-15.624 4.251h-12.53c1.78-10.327 2.715-20.476 2.715-31.047 0-10.527-0.935-20.698-2.715-31.047h12.53c5.519 0 10.928 1.714 15.624 4.518l28.688 17.293c3.294 1.959 5.297 5.586 5.297 9.414 0 3.873-2.003 7.478-5.297 9.459zM83.215 785.323c1.358-5.341 4.117-10.238 7.99-14.11l8.902-8.902c11.907 16.959 26.707 31.782 43.689 43.689l-8.902 8.902c-3.895 3.895-8.769 6.677-14.11 8.012l-32.405 8.079c-3.761 0.957-7.701-0.134-10.416-2.871-2.715-2.715-3.784-6.655-2.871-10.371l8.123-32.427zM407.775 535.877c-1.335 5.364-4.095 10.238-7.99 14.133l-8.925 8.925c-11.907-16.981-26.707-31.782-43.666-43.689l8.902-8.925c3.895-3.895 8.769-6.655 14.133-8.012l32.405-8.101c3.739-0.935 7.678 0.134 10.394 2.871 2.715 2.715 3.784 6.655 2.893 10.371l-8.146 32.427zM346.126 821.6c2.114 5.074 2.827 10.661 2.003 16.113l-4.83 33.072c-0.556 3.784-3.071 7.033-6.61 8.502-3.539 1.491-7.612 0.979-10.683-1.291l-26.908-19.83c-4.429-3.272-7.901-7.678-10.015-12.775l-4.807-11.551c20.565-4.607 39.794-12.775 57.020-23.858l4.83 11.618zM144.909 499.622c-2.114-5.074-2.804-10.661-2.025-16.113l4.874-33.072c0.534-3.784 3.071-7.033 6.588-8.502 3.561-1.491 7.612-0.979 10.705 1.291l26.885 19.83c4.429 3.272 7.901 7.701 10.037 12.775l4.785 11.573c-20.565 4.585-39.816 12.753-57.020 23.792l-4.83-11.573zM395.289 755.678c10.994-17.248 19.073-36.544 23.569-57.153l11.595 4.807c5.097 2.070 9.526 5.519 12.842 9.948l19.941 26.841c2.292 3.071 2.804 7.122 1.335 10.661-1.447 3.539-4.674 6.076-8.48 6.655l-33.028 4.985c-5.453 0.846-11.017 0.156-16.113-1.914l-11.662-4.83zM95.679 565.567c-10.972 17.248-19.051 36.522-23.569 57.109l-11.595-4.763c-5.097-2.092-9.526-5.542-12.819-9.948l-19.941-26.819c-2.292-3.071-2.782-7.122-1.335-10.683s4.674-6.054 8.457-6.655l33.050-5.008c5.453-0.823 11.039-0.134 16.113 1.959l11.64 4.807zM443.051 607.030c-3.272 4.451-7.701 7.879-12.797 10.037l-11.573 4.807c-4.585-20.565-12.753-39.794-23.836-57.020l11.618-4.852c5.074-2.114 10.661-2.827 16.113-2.025l33.072 4.83c3.806 0.556 7.033 3.071 8.524 6.632 1.469 3.516 0.979 7.589-1.291 10.683l-19.83 26.908zM47.962 714.193c3.272-4.451 7.701-7.879 12.775-10.037l11.551-4.807c4.607 20.565 12.775 39.816 23.836 57.020l-11.595 4.852c-5.074 2.114-10.661 2.827-16.113 2.025l-33.095-4.83c-3.784-0.556-7.011-3.071-8.502-6.632-1.469-3.516-0.957-7.589 1.291-10.683l19.852-26.908zM150.451 810.428c17.226 10.994 36.522 19.073 57.131 23.591l-4.785 11.573c-2.092 5.097-5.542 9.503-9.948 12.797l-26.841 19.941c-3.049 2.315-7.122 2.804-10.661 1.358s-6.076-4.674-6.632-8.48l-5.008-33.028c-0.823-5.453-0.156-11.039 1.936-16.113l4.807-11.64zM340.562 510.817c-17.248-10.994-36.522-19.073-57.131-23.591l4.785-11.595c2.114-5.097 5.542-9.503 9.948-12.797l26.819-19.964c3.094-2.315 7.122-2.804 10.683-1.335 3.561 1.447 6.054 4.652 6.655 8.457l4.985 33.050c0.846 5.43 0.156 11.017-1.936 16.113l-4.807 11.662zM392.040 660.6c0-80.953-65.625-146.578-146.578-146.578s-146.578 65.625-146.578 146.578c0 80.953 65.625 146.578 146.578 146.578s146.578-65.625 146.578-146.578z" />
<glyph unicode="&#xe923;" glyph-name="telegram" d="M18.087 444.945l235.95-88.064 91.327-293.707c5.844-18.811 28.846-25.764 44.114-13.281l131.523 107.22c13.786 11.233 33.423 11.793 47.831 1.335l237.22-172.227c16.333-11.872 39.472-2.922 43.568 16.814l173.776 835.895c4.471 21.559-16.712 39.543-37.239 31.604l-968.346-373.559c-23.897-9.216-23.689-43.049 0.276-52.029zM330.646 403.76l461.135 284.013c8.288 5.089 16.814-6.117 9.697-12.718l-380.57-353.758c-13.377-12.452-22.006-29.116-24.45-47.203l-12.964-96.072c-1.717-12.827-19.736-14.1-23.276-1.686l-49.859 175.189c-5.711 19.982 2.611 41.325 20.285 52.234z" />
<glyph unicode="&#xe924;" glyph-name="telephone" d="M778.514 261.271c-33.454 33.028-75.219 33.028-108.46 0-25.357-25.144-50.714-50.288-75.645-75.858-6.819-7.032-12.572-8.523-20.882-3.836-16.408 8.95-33.88 16.194-49.649 25.996-73.514 46.239-135.096 105.69-189.645 172.599-27.062 33.241-51.14 68.826-67.974 108.886-3.409 8.097-2.77 13.424 3.836 20.030 25.357 24.505 50.075 49.649 75.006 74.793 34.733 34.946 34.733 75.858-0.213 111.017-19.817 20.030-39.634 39.634-59.451 59.664-20.456 20.456-40.699 41.125-61.368 61.368-33.454 32.602-75.219 32.602-108.46-0.213-25.57-25.144-50.075-50.927-76.071-75.645-24.079-22.8-36.224-50.714-38.781-83.316-4.049-53.058 8.95-103.133 27.275-151.929 37.503-101.002 94.61-190.711 163.862-272.962 93.544-111.23 205.201-199.234 335.822-262.733 58.811-28.553 119.754-50.501 186.023-54.124 45.6-2.557 85.234 8.95 116.984 44.535 21.735 24.292 46.239 46.452 69.253 69.679 34.094 34.52 34.307 76.284 0.426 110.378-40.486 40.699-81.185 81.185-121.884 121.671zM737.814 431.099l78.628 13.424c-12.359 72.236-46.452 137.653-98.232 189.645-54.763 54.763-124.015 89.283-200.3 99.937l-11.080-79.054c59.024-8.31 112.722-34.946 155.126-77.35 40.060-40.060 66.269-90.774 75.858-146.602zM860.764 772.887c-90.774 90.774-205.627 148.094-332.412 165.78l-11.080-79.054c109.526-15.342 208.823-64.991 287.238-143.193 74.367-74.367 123.163-168.337 140.849-271.683l78.628 13.424c-20.669 119.754-77.137 228.427-163.223 314.726z" />
<glyph unicode="&#xe925;" glyph-name="twitter" d="M512 938.667c-282.771 0-512-229.229-512-512s229.229-512 512-512 512 229.229 512 512-229.229 512-512 512zM449.795 269.72c17.201-17.735 38.090-26.619 62.624-26.619h176.788c24.503 0 45.59-9.061 63.095-27.163 17.568-18.081 26.304-39.745 26.304-65.054 0-25.299-8.737-47.015-26.304-65.065-17.526-18.071-38.519-27.111-63.074-27.111h-176.725c-73.602 0-136.498 26.944-188.741 80.872-52.263 53.908-78.379 118.847-78.379 194.817v367.959c0 26.022 8.705 47.926 26.116 65.672 17.39 17.714 38.655 26.598 63.745 26.598 24.356 0 45.307-9.030 62.655-27.153 17.432-18.050 26.147-39.724 26.147-65.054v-92.176h264.899c24.628 0 45.705-9.041 63.326-27.132 17.61-18.071 26.367-39.766 26.367-65.086 0-25.267-8.758-46.973-26.325-65.044-17.536-18.081-38.592-27.111-63.085-27.111h-265.203v-91.39c0-25.404 8.58-46.963 25.77-64.761z" />
<glyph unicode="&#xe926;" glyph-name="upload-photo" d="M384 682.667c0-35.346-28.654-64-64-64s-64 28.654-64 64c0 35.346 28.654 64 64 64s64-28.654 64-64zM762.626 316.417c-11.876 17.812-41.376 17.812-53.25 0l-64-96c-6.532-9.812-7.156-22.438-1.594-32.844s16.406-16.906 28.218-16.906h32v-64c0-17.672 14.312-32 32-32s32 14.328 32 32v64h32c11.812 0 22.656 6.5 28.218 16.906s4.938 23.032-1.594 32.844l-63.998 96zM960 938.667h-896c-35.344 0-64-28.656-64-64v-640c0-35.344 28.656-64 64-64h385.89c15.984-143.774 138.124-256 286.11-256 158.812 0 288 129.204 288 288v672c0 35.344-28.656 64-64 64zM404.812 514.963c-11.282 9.672-27.75 10.296-39.75 1.516l-237.062-173.852v468.040h768v-352c0 0-126.938 133.48-167 179.984-6.24 7.244-14.968 11.876-24.532 12.016-9.188 0.204-18.688-3.984-24.844-11.282l-177-208.234-97.812 83.812zM957.454 170.667c-15.562-108.516-108.626-192-221.454-192s-205.89 83.484-221.454 192c-1.5 10.476-2.546 21.11-2.546 32 0 123.71 100.282 224 224 224s224-100.29 224-224c0-10.89-1.046-21.524-2.546-32z" />
<glyph unicode="&#xe927;" glyph-name="winter" d="M970.179 248.74l-17.072 63.956-121.916-32.54-103.139 59.726 128.306 56.457v60.675l-128.315 56.457 103.139 59.72 121.931-32.534 17.072 63.956-57.944 15.438 59.48 34.399-33.241 57.28-59.366-34.371 15.45 57.926-63.956 17.054-32.528-121.885-102.834-59.409 15.109 138.702-52.414 30.344-112.926-82.617v118.911l89.231 89.148-46.783 46.903-42.445-42.417v68.65h-66.147v-68.65l-42.427 42.417-46.807-46.906 89.231-89.148v-118.902l-112.92 82.617-52.414-30.344 15.127-138.702-102.847 59.403-32.534 121.891-63.95-17.060 15.444-57.922-59.354 34.371-33.136-57.277 59.36-34.399-57.932-15.438 17.072-63.956 121.916 32.534 103.151-59.72-128.327-56.457v-60.675l128.318-56.457-103.151-59.726-121.897 32.54-17.072-63.956 57.919-15.438-59.354-34.393 33.139-57.302 59.348 34.347-15.45-57.879 63.956-17.078 32.534 121.909 102.853 59.409-15.127-138.708 52.414-30.35 112.92 82.62v-118.957l-89.231-89.105 46.807-46.9 42.423 42.411v-68.669h66.147v68.669l42.445-42.411 46.786 46.9-89.237 89.105v118.945l112.926-82.62 52.414 30.35-15.115 138.708 102.841-59.409 32.534-121.909 63.956 17.078-15.45 57.873 59.36-34.341 33.241 57.302-59.48 34.387 57.938 15.45zM760.876 426.679l-103.774-45.729-79.108 45.735 79.096 45.705 103.787-45.711zM636.392 642.293l-12.212-112.373-79.17-45.867v91.308l91.381 66.933zM387.488 642.293l91.378-66.933v-91.308l-79.173 45.867-12.206 112.373zM263.005 426.679l103.787 45.711 79.102-45.705-79.114-45.735-103.774 45.729zM387.488 211.057l12.206 112.386 79.173 45.849v-91.295l-91.378-66.939zM636.392 211.057l-91.378 66.939v91.295l79.17-45.849 12.209-112.386z" />
<glyph unicode="&#xe928;" glyph-name="mobile" d="M727.42 938.667h-430.84c-41.233 0-74.518-33.434-74.518-74.593v-874.889c0-41.121 33.285-74.518 74.518-74.518h430.84c41.159 0 74.518 33.397 74.518 74.518v874.889c0 41.159-33.36 74.593-74.518 74.593zM405.689 893.367h212.696c5.373 0 9.739-8.023 9.739-17.949s-4.366-17.986-9.739-17.986h-212.696c-5.411 0-9.702 8.060-9.702 17.986s4.291 17.949 9.702 17.949zM512.037-11.71c-26.232 0-47.577 21.344-47.577 47.614s21.344 47.539 47.577 47.539c26.158 0 47.502-21.27 47.502-47.539s-21.344-47.614-47.502-47.614zM746.115 151.319h-468.192v661.484h468.192v-661.484z" />
<glyph unicode="&#xe929;" glyph-name="caret-left2" d="M780.994 919.669c-12.662 12.669-27.667 18.998-44.997 18.998-17.334 0-32.339-6.329-45.001-18.998l-447.996-448c-12.662-12.669-18.998-27.663-18.998-44.997s6.336-32.339 18.998-44.997l447.996-448c12.658-12.669 27.663-19.012 45.001-19.012 17.331 0 32.335 6.343 44.997 19.012 12.669 12.658 19.008 27.663 19.008 44.997v896c-0.004 17.334-6.34 32.325-19.008 44.997z" />
<glyph unicode="&#xe92a;" glyph-name="caret-right2" d="M780.994 471.669l-447.996 448c-12.669 12.669-27.653 18.998-44.997 18.998s-32.339-6.329-45.008-18.998c-12.669-12.669-18.998-27.663-18.998-44.997v-895.996c0-17.331 6.329-32.335 18.998-44.997 12.683-12.669 27.677-19.012 45.008-19.012 17.334 0 32.328 6.343 44.997 19.012l447.996 448c12.658 12.655 19.012 27.66 19.012 44.997 0 17.331-6.35 32.325-19.012 44.994z" />
<glyph unicode="&#xe92b;" glyph-name="caret-right" d="M780.994 493.002l-447.996 448c-12.669 12.669-27.653 18.998-44.997 18.998s-32.339-6.329-45.008-18.998c-12.669-12.669-18.998-27.663-18.998-44.997v-895.996c0-17.331 6.329-32.335 18.998-44.997 12.683-12.669 27.677-19.012 45.008-19.012 17.334 0 32.328 6.343 44.997 19.012l447.996 448c12.658 12.655 19.012 27.66 19.012 44.997 0 17.331-6.35 32.325-19.012 44.994z" />
<glyph unicode="&#xe92c;" glyph-name="caret-up" d="M1004.995 268.999l-447.997 447.993c-12.655 12.669-27.652 18.998-44.997 18.998s-32.339-6.329-45.007-18.998l-447.997-447.993c-12.669-12.669-18.998-27.666-18.998-44.997s6.329-32.339 18.998-44.997c12.683-12.669 27.677-19.001 45.007-19.001h895.99c17.334 0 32.339 6.333 45 19.001 12.655 12.655 19.008 27.663 19.008 44.997s-6.354 32.328-19.008 44.997z" />
<glyph unicode="&#xe92d;" glyph-name="caret-down" d="M1004.992 717.007c-12.658 12.669-27.663 18.998-45 18.998h-895.987c-17.344 0-32.339-6.329-45.007-18.998-12.669-12.683-18.998-27.677-18.998-45.011 0-17.33 6.329-32.325 18.998-44.997l447.995-447.995c12.683-12.669 27.677-19.012 45.007-19.012s32.339 6.343 44.997 19.012l447.995 447.999c12.655 12.669 19.008 27.663 19.008 44.997 0 17.33-6.354 32.325-19.008 45.007z" />
<glyph unicode="&#xe92e;" glyph-name="finger-up" d="M334.973 870.116v-393.522c0-16.013-1.973-28.058-4.198-36.486-91.276 48.268-158.055 60.686-198.706 36.881-36.037-21.098-36.464-61.201-36.464-62.9 0.022-66.276 77.948-96.010 88.711-99.792 111.782-51.885 147.895-110.598 157.124-154.384-30.085-0.427-54.461-24.956-54.461-55.14v-113.535c0-30.458 24.781-55.239 55.228-55.239h514.477c30.458 0 55.228 24.781 55.228 55.239v113.514c0 28.617-21.964 51.951-49.857 54.691 3.88 13.196 9.075 22.402 15.651 33.757 8.286 14.369 18.621 32.212 30.096 63.459 30.699 83.538 18.128 228.529 17.58 234.644l-0.23 1.786c-14.095 75.022-64.478 85.993-97.83 93.226-12.374 2.685-24.057 5.261-30.743 10.072-32.858 32.047-68.435 48.038-98.772 51.962-25.888 2.543-38.579 1.677-59.108 5.809-19.224 5.886-76.183 18.961-124.046-11.782-0.175 80.863-0.493 224.298-0.493 241.812 0 30.359-36.223 58.308-36.223 58.308-14.884 10.96-33.198 17.503-53.091 17.503-49.551-0.011-89.873-40.333-89.873-89.884zM850.546 98.626v-101.26h-502.191v101.26h502.191zM446.557 48.067c0-19.769-16.026-35.796-35.796-35.796s-35.796 16.026-35.796 35.796c0 19.769 16.026 35.796 35.796 35.796s35.796-16.026 35.796-35.796z" />
<glyph unicode="&#xe92f;" glyph-name="caret-left" d="M780.994 941.002c-12.662 12.669-27.667 18.998-44.997 18.998-17.334 0-32.339-6.329-45.001-18.998l-447.996-448c-12.662-12.669-18.998-27.663-18.998-44.997s6.336-32.339 18.998-44.997l447.996-448c12.658-12.669 27.663-19.012 45.001-19.012 17.331 0 32.335 6.343 44.997 19.012 12.669 12.658 19.008 27.663 19.008 44.997v896c-0.004 17.334-6.34 32.325-19.008 44.997z" />
<glyph unicode="&#xe930;" glyph-name="office" d="M0-64h512v1024h-512v-1024zM320 832h128v-128h-128v128zM320 576h128v-128h-128v128zM320 320h128v-128h-128v128zM64 832h128v-128h-128v128zM64 576h128v-128h-128v128zM64 320h128v-128h-128v128zM576 640h448v-64h-448zM576-64h128v256h192v-256h128v576h-448z" />
<glyph unicode="&#xe931;" glyph-name="caret-up2" d="M1004.995 247.666l-447.997 447.993c-12.655 12.669-27.652 18.998-44.997 18.998s-32.339-6.329-45.007-18.998l-447.997-447.993c-12.669-12.669-18.998-27.666-18.998-44.997s6.329-32.339 18.998-44.997c12.683-12.669 27.677-19.001 45.007-19.001h895.99c17.334 0 32.339 6.333 45 19.001 12.655 12.655 19.008 27.663 19.008 44.997s-6.354 32.328-19.008 44.997z" />
<glyph unicode="&#xe932;" glyph-name="caret-down2" d="M1004.992 695.674c-12.658 12.669-27.663 18.998-45 18.998h-895.987c-17.344 0-32.339-6.329-45.007-18.998-12.669-12.683-18.998-27.677-18.998-45.011 0-17.33 6.329-32.325 18.998-44.997l447.995-447.995c12.683-12.669 27.677-19.012 45.007-19.012s32.339 6.343 44.997 19.012l447.995 447.999c12.655 12.669 19.008 27.663 19.008 44.997 0 17.33-6.354 32.325-19.008 45.007z" />
<glyph unicode="&#xe933;" glyph-name="finger-up2" d="M334.973 848.783v-393.522c0-16.013-1.973-28.058-4.198-36.486-91.276 48.268-158.055 60.686-198.706 36.881-36.037-21.098-36.464-61.201-36.464-62.9 0.022-66.276 77.948-96.010 88.711-99.792 111.782-51.885 147.895-110.598 157.124-154.384-30.085-0.427-54.461-24.956-54.461-55.14v-113.535c0-30.458 24.781-55.239 55.228-55.239h514.477c30.458 0 55.228 24.781 55.228 55.239v113.514c0 28.617-21.964 51.951-49.857 54.691 3.88 13.196 9.075 22.402 15.651 33.757 8.286 14.369 18.621 32.212 30.096 63.459 30.699 83.538 18.128 228.529 17.58 234.644l-0.23 1.786c-14.095 75.022-64.478 85.993-97.83 93.226-12.374 2.685-24.057 5.261-30.743 10.072-32.858 32.047-68.435 48.038-98.772 51.962-25.888 2.543-38.579 1.677-59.108 5.809-19.224 5.886-76.183 18.961-124.046-11.782-0.175 80.863-0.493 224.298-0.493 241.812 0 30.359-36.223 58.308-36.223 58.308-14.884 10.96-33.198 17.503-53.091 17.503-49.551-0.011-89.873-40.333-89.873-89.884zM850.546 77.293v-101.26h-502.191v101.26h502.191zM446.557 26.734c0-19.769-16.026-35.796-35.796-35.796s-35.796 16.026-35.796 35.796c0 19.769 16.026 35.796 35.796 35.796s35.796-16.026 35.796-35.796z" />
<glyph unicode="&#xe934;" glyph-name="printer" d="M256 138.667v-192h512v320h-512v-128zM320 202.667h384v-64h-384v64zM320 74.667h384v-64h-384v64zM768 714.667v192h-512v-320h512zM896 714.667h-64v-192h-640v192h-64c-64 0-128-64-128-128v-320c0-64 64-128 128-128h64v192h640v-192h64c64 0 128 64 128 128v320c0 64-64 128-128 128z" />
<glyph unicode="&#xe935;" glyph-name="about-us" d="M511.867 454.639c75.716 0 136.58 61.215 136.58 136.448 0.088 75.453-60.864 136.492-136.58 136.492-75.19 0-136.228-61.040-136.228-136.492 0-75.323 61.040-136.448 136.228-136.448zM621.421 432.403h-218.756c-39.111 0-71.146-35.859-71.146-79.847v-219.724c0-2.416 1.23-4.57 1.363-7.075h358.192c0.263 2.504 1.275 4.657 1.275 7.075v219.724c0.13 43.988-31.905 79.847-70.928 79.847zM879.245 389.513c60.775 0 109.509 48.91 109.509 109.334s-48.735 109.422-109.509 109.422c-60.337 0-109.159-48.997-109.159-109.422-0.13-60.381 48.824-109.334 109.159-109.334zM967.090 371.671h-175.296c-31.465 0-57.173-28.739-57.173-64.116v-176.043c0-1.891 0.923-3.691 1.055-5.757h287.311c0.132 2.066 1.010 3.867 1.010 5.757v176.043c0.132 35.377-25.531 64.116-56.908 64.116zM144.666 389.513c60.687 0 109.467 48.91 109.467 109.334s-48.779 109.422-109.467 109.422c-60.379 0-109.202-48.997-109.202-109.422s48.822-109.334 109.202-109.334v0zM232.466 371.671h-175.471c-31.375 0-56.996-28.739-56.996-64.116v-176.043c0-1.891 0.923-3.691 1.098-5.757h287.311c0.132 2.066 0.968 3.867 0.968 5.757v176.043c0.088 35.377-25.577 64.116-56.91 64.116z" />
<glyph unicode="&#xe936;" glyph-name="address" d="M853.333 716.8v-636.006l68.267-119.467v-29.594c0-9.438 7.629-17.067 17.067-17.067s17.067 7.629 17.067 17.067v29.594l68.267 119.467v670.14h-170.667v-34.133zM977.527 68.267l-38.861-67.994-38.861 67.994h77.722zM973.056 938.667h-68.762c-28.109 0-50.961-22.852-50.961-50.944v-102.656h170.667v102.656c0 28.092-22.852 50.944-50.944 50.944zM0 938.667v-1024h785.067v1024h-785.067zM750.933-51.2h-580.267v955.733h580.267v-955.733zM665.6 768h-409.6v-238.933h409.6v238.933zM580.267 597.334h-238.933v34.133h238.933v-34.133zM580.267 665.6h-238.933v34.133h238.933v-34.133z" />
<glyph unicode="&#xe937;" glyph-name="apartment" d="M764.436-48.107h-3.683v875.097c0 10.279-8.334 18.613-18.613 18.613h-277.060v37.226c0 10.279-8.334 18.613-18.613 18.613s-18.613-8.334-18.613-18.613v-37.226h-37.226v74.452c0 10.279-8.334 18.613-18.613 18.613s-18.613-8.334-18.613-18.613v-74.452h-73.87c-10.279 0-18.613-8.334-18.613-18.613v-875.097h-1.356c-10.279 0-18.613-8.334-18.613-18.613s8.334-18.613 18.613-18.613h504.872c10.279 0 18.613 8.334 18.613 18.613s-8.334 18.613-18.613 18.613zM298.146-48.107v856.484h425.381v-856.484h-425.381zM390.433 25.472h-37.226c-10.279 0-18.613-8.334-18.613-18.613s8.334-18.613 18.613-18.613h37.226c10.279 0 18.613 8.334 18.613 18.613s-8.332 18.613-18.613 18.613zM390.433 99.923h-37.226c-10.279 0-18.613-8.334-18.613-18.613s8.334-18.613 18.613-18.613h37.226c10.279 0 18.613 8.334 18.613 18.613s-8.332 18.613-18.613 18.613zM390.433 174.375h-37.226c-10.279 0-18.613-8.334-18.613-18.613s8.334-18.613 18.613-18.613h37.226c10.279 0 18.613 8.334 18.613 18.613s-8.332 18.613-18.613 18.613zM390.433 248.827h-37.226c-10.279 0-18.613-8.334-18.613-18.613s8.334-18.613 18.613-18.613h37.226c10.279 0 18.613 8.334 18.613 18.613s-8.332 18.613-18.613 18.613zM390.433 323.667h-37.226c-10.279 0-18.613-8.334-18.613-18.613s8.334-18.613 18.613-18.613h37.226c10.279 0 18.613 8.334 18.613 18.613s-8.332 18.613-18.613 18.613zM390.433 398.118h-37.226c-10.279 0-18.613-8.334-18.613-18.613s8.334-18.613 18.613-18.613h37.226c10.279 0 18.613 8.334 18.613 18.613s-8.332 18.613-18.613 18.613zM390.433 472.57h-37.226c-10.279 0-18.613-8.334-18.613-18.613s8.334-18.613 18.613-18.613h37.226c10.279 0 18.613 8.334 18.613 18.613s-8.332 18.613-18.613 18.613zM390.433 547.021h-37.226c-10.279 0-18.613-8.334-18.613-18.613s8.334-18.613 18.613-18.613h37.226c10.279 0 18.613 8.334 18.613 18.613s-8.332 18.613-18.613 18.613zM390.433 621.084h-37.226c-10.279 0-18.613-8.334-18.613-18.613s8.334-18.613 18.613-18.613h37.226c10.279 0 18.613 8.334 18.613 18.613s-8.332 18.613-18.613 18.613zM390.433 695.536h-37.226c-10.279 0-18.613-8.334-18.613-18.613s8.334-18.613 18.613-18.613h37.226c10.279 0 18.613 8.334 18.613 18.613s-8.332 18.613-18.613 18.613zM390.433 769.988h-37.226c-10.279 0-18.613-8.334-18.613-18.613s8.334-18.613 18.613-18.613h37.226c10.279 0 18.613 8.334 18.613 18.613s-8.332 18.613-18.613 18.613zM671.179 25.472h-37.226c-10.279 0-18.613-8.334-18.613-18.613s8.334-18.613 18.613-18.613h37.226c10.279 0 18.613 8.334 18.613 18.613s-8.334 18.613-18.613 18.613zM671.179 99.923h-37.226c-10.279 0-18.613-8.334-18.613-18.613s8.334-18.613 18.613-18.613h37.226c10.279 0 18.613 8.334 18.613 18.613s-8.334 18.613-18.613 18.613zM671.179 174.375h-37.226c-10.279 0-18.613-8.334-18.613-18.613s8.334-18.613 18.613-18.613h37.226c10.279 0 18.613 8.334 18.613 18.613s-8.334 18.613-18.613 18.613zM671.179 248.827h-37.226c-10.279 0-18.613-8.334-18.613-18.613s8.334-18.613 18.613-18.613h37.226c10.279 0 18.613 8.334 18.613 18.613s-8.334 18.613-18.613 18.613zM671.179 323.667h-37.226c-10.279 0-18.613-8.334-18.613-18.613s8.334-18.613 18.613-18.613h37.226c10.279 0 18.613 8.334 18.613 18.613s-8.334 18.613-18.613 18.613zM671.179 398.118h-37.226c-10.279 0-18.613-8.334-18.613-18.613s8.334-18.613 18.613-18.613h37.226c10.279 0 18.613 8.334 18.613 18.613s-8.334 18.613-18.613 18.613zM671.179 472.57h-37.226c-10.279 0-18.613-8.334-18.613-18.613s8.334-18.613 18.613-18.613h37.226c10.279 0 18.613 8.334 18.613 18.613s-8.334 18.613-18.613 18.613zM671.179 547.021h-37.226c-10.279 0-18.613-8.334-18.613-18.613s8.334-18.613 18.613-18.613h37.226c10.279 0 18.613 8.334 18.613 18.613s-8.334 18.613-18.613 18.613zM671.179 621.084h-37.226c-10.279 0-18.613-8.334-18.613-18.613s8.334-18.613 18.613-18.613h37.226c10.279 0 18.613 8.334 18.613 18.613s-8.334 18.613-18.613 18.613zM671.179 695.536h-37.226c-10.279 0-18.613-8.334-18.613-18.613s8.334-18.613 18.613-18.613h37.226c10.279 0 18.613 8.334 18.613 18.613s-8.334 18.613-18.613 18.613zM671.179 769.988h-37.226c-10.279 0-18.613-8.334-18.613-18.613s8.334-18.613 18.613-18.613h37.226c10.279 0 18.613 8.334 18.613 18.613s-8.334 18.613-18.613 18.613zM559.501 25.472h-96.943c-10.279 0-18.613-8.334-18.613-18.613s8.334-18.613 18.613-18.613h96.943c10.279 0 18.613 8.334 18.613 18.613s-8.334 18.613-18.613 18.613zM559.501 99.923h-96.943c-10.279 0-18.613-8.334-18.613-18.613s8.334-18.613 18.613-18.613h96.943c10.279 0 18.613 8.334 18.613 18.613s-8.334 18.613-18.613 18.613zM559.501 174.375h-96.943c-10.279 0-18.613-8.334-18.613-18.613s8.334-18.613 18.613-18.613h96.943c10.279 0 18.613 8.334 18.613 18.613s-8.334 18.613-18.613 18.613zM559.501 248.827h-96.943c-10.279 0-18.613-8.334-18.613-18.613s8.334-18.613 18.613-18.613h96.943c10.279 0 18.613 8.334 18.613 18.613s-8.334 18.613-18.613 18.613zM559.501 323.667h-96.943c-10.279 0-18.613-8.334-18.613-18.613s8.334-18.613 18.613-18.613h96.943c10.279 0 18.613 8.334 18.613 18.613s-8.334 18.613-18.613 18.613zM559.501 398.118h-96.943c-10.279 0-18.613-8.334-18.613-18.613s8.334-18.613 18.613-18.613h96.943c10.279 0 18.613 8.334 18.613 18.613s-8.334 18.613-18.613 18.613zM559.501 472.57h-96.943c-10.279 0-18.613-8.334-18.613-18.613s8.334-18.613 18.613-18.613h96.943c10.279 0 18.613 8.334 18.613 18.613s-8.334 18.613-18.613 18.613zM559.501 547.021h-96.943c-10.279 0-18.613-8.334-18.613-18.613s8.334-18.613 18.613-18.613h96.943c10.279 0 18.613 8.334 18.613 18.613s-8.334 18.613-18.613 18.613zM559.501 621.084h-96.943c-10.279 0-18.613-8.334-18.613-18.613s8.334-18.613 18.613-18.613h96.943c10.279 0 18.613 8.334 18.613 18.613s-8.334 18.613-18.613 18.613zM559.501 695.536h-96.943c-10.279 0-18.613-8.334-18.613-18.613s8.334-18.613 18.613-18.613h96.943c10.279 0 18.613 8.334 18.613 18.613s-8.334 18.613-18.613 18.613zM559.501 769.988h-96.943c-10.279 0-18.613-8.334-18.613-18.613s8.334-18.613 18.613-18.613h96.943c10.279 0 18.613 8.334 18.613 18.613s-8.334 18.613-18.613 18.613z" />
<glyph unicode="" glyph-name="apartment" d="M764.436-48.107h-3.683v875.097c0 10.279-8.334 18.613-18.613 18.613h-277.060v37.226c0 10.279-8.334 18.613-18.613 18.613s-18.613-8.334-18.613-18.613v-37.226h-37.226v74.452c0 10.279-8.334 18.613-18.613 18.613s-18.613-8.334-18.613-18.613v-74.452h-73.87c-10.279 0-18.613-8.334-18.613-18.613v-875.097h-1.356c-10.279 0-18.613-8.334-18.613-18.613s8.334-18.613 18.613-18.613h504.872c10.279 0 18.613 8.334 18.613 18.613s-8.334 18.613-18.613 18.613zM298.146-48.107v856.484h425.381v-856.484h-425.381zM390.433 25.472h-37.226c-10.279 0-18.613-8.334-18.613-18.613s8.334-18.613 18.613-18.613h37.226c10.279 0 18.613 8.334 18.613 18.613s-8.332 18.613-18.613 18.613zM390.433 99.923h-37.226c-10.279 0-18.613-8.334-18.613-18.613s8.334-18.613 18.613-18.613h37.226c10.279 0 18.613 8.334 18.613 18.613s-8.332 18.613-18.613 18.613zM390.433 174.375h-37.226c-10.279 0-18.613-8.334-18.613-18.613s8.334-18.613 18.613-18.613h37.226c10.279 0 18.613 8.334 18.613 18.613s-8.332 18.613-18.613 18.613zM390.433 248.827h-37.226c-10.279 0-18.613-8.334-18.613-18.613s8.334-18.613 18.613-18.613h37.226c10.279 0 18.613 8.334 18.613 18.613s-8.332 18.613-18.613 18.613zM390.433 323.667h-37.226c-10.279 0-18.613-8.334-18.613-18.613s8.334-18.613 18.613-18.613h37.226c10.279 0 18.613 8.334 18.613 18.613s-8.332 18.613-18.613 18.613zM390.433 398.118h-37.226c-10.279 0-18.613-8.334-18.613-18.613s8.334-18.613 18.613-18.613h37.226c10.279 0 18.613 8.334 18.613 18.613s-8.332 18.613-18.613 18.613zM390.433 472.57h-37.226c-10.279 0-18.613-8.334-18.613-18.613s8.334-18.613 18.613-18.613h37.226c10.279 0 18.613 8.334 18.613 18.613s-8.332 18.613-18.613 18.613zM390.433 547.021h-37.226c-10.279 0-18.613-8.334-18.613-18.613s8.334-18.613 18.613-18.613h37.226c10.279 0 18.613 8.334 18.613 18.613s-8.332 18.613-18.613 18.613zM390.433 621.084h-37.226c-10.279 0-18.613-8.334-18.613-18.613s8.334-18.613 18.613-18.613h37.226c10.279 0 18.613 8.334 18.613 18.613s-8.332 18.613-18.613 18.613zM390.433 695.536h-37.226c-10.279 0-18.613-8.334-18.613-18.613s8.334-18.613 18.613-18.613h37.226c10.279 0 18.613 8.334 18.613 18.613s-8.332 18.613-18.613 18.613zM390.433 769.988h-37.226c-10.279 0-18.613-8.334-18.613-18.613s8.334-18.613 18.613-18.613h37.226c10.279 0 18.613 8.334 18.613 18.613s-8.332 18.613-18.613 18.613zM671.179 25.472h-37.226c-10.279 0-18.613-8.334-18.613-18.613s8.334-18.613 18.613-18.613h37.226c10.279 0 18.613 8.334 18.613 18.613s-8.334 18.613-18.613 18.613zM671.179 99.923h-37.226c-10.279 0-18.613-8.334-18.613-18.613s8.334-18.613 18.613-18.613h37.226c10.279 0 18.613 8.334 18.613 18.613s-8.334 18.613-18.613 18.613zM671.179 174.375h-37.226c-10.279 0-18.613-8.334-18.613-18.613s8.334-18.613 18.613-18.613h37.226c10.279 0 18.613 8.334 18.613 18.613s-8.334 18.613-18.613 18.613zM671.179 248.827h-37.226c-10.279 0-18.613-8.334-18.613-18.613s8.334-18.613 18.613-18.613h37.226c10.279 0 18.613 8.334 18.613 18.613s-8.334 18.613-18.613 18.613zM671.179 323.667h-37.226c-10.279 0-18.613-8.334-18.613-18.613s8.334-18.613 18.613-18.613h37.226c10.279 0 18.613 8.334 18.613 18.613s-8.334 18.613-18.613 18.613zM671.179 398.118h-37.226c-10.279 0-18.613-8.334-18.613-18.613s8.334-18.613 18.613-18.613h37.226c10.279 0 18.613 8.334 18.613 18.613s-8.334 18.613-18.613 18.613zM671.179 472.57h-37.226c-10.279 0-18.613-8.334-18.613-18.613s8.334-18.613 18.613-18.613h37.226c10.279 0 18.613 8.334 18.613 18.613s-8.334 18.613-18.613 18.613zM671.179 547.021h-37.226c-10.279 0-18.613-8.334-18.613-18.613s8.334-18.613 18.613-18.613h37.226c10.279 0 18.613 8.334 18.613 18.613s-8.334 18.613-18.613 18.613zM671.179 621.084h-37.226c-10.279 0-18.613-8.334-18.613-18.613s8.334-18.613 18.613-18.613h37.226c10.279 0 18.613 8.334 18.613 18.613s-8.334 18.613-18.613 18.613zM671.179 695.536h-37.226c-10.279 0-18.613-8.334-18.613-18.613s8.334-18.613 18.613-18.613h37.226c10.279 0 18.613 8.334 18.613 18.613s-8.334 18.613-18.613 18.613zM671.179 769.988h-37.226c-10.279 0-18.613-8.334-18.613-18.613s8.334-18.613 18.613-18.613h37.226c10.279 0 18.613 8.334 18.613 18.613s-8.334 18.613-18.613 18.613zM559.501 25.472h-96.943c-10.279 0-18.613-8.334-18.613-18.613s8.334-18.613 18.613-18.613h96.943c10.279 0 18.613 8.334 18.613 18.613s-8.334 18.613-18.613 18.613zM559.501 99.923h-96.943c-10.279 0-18.613-8.334-18.613-18.613s8.334-18.613 18.613-18.613h96.943c10.279 0 18.613 8.334 18.613 18.613s-8.334 18.613-18.613 18.613zM559.501 174.375h-96.943c-10.279 0-18.613-8.334-18.613-18.613s8.334-18.613 18.613-18.613h96.943c10.279 0 18.613 8.334 18.613 18.613s-8.334 18.613-18.613 18.613zM559.501 248.827h-96.943c-10.279 0-18.613-8.334-18.613-18.613s8.334-18.613 18.613-18.613h96.943c10.279 0 18.613 8.334 18.613 18.613s-8.334 18.613-18.613 18.613zM559.501 323.667h-96.943c-10.279 0-18.613-8.334-18.613-18.613s8.334-18.613 18.613-18.613h96.943c10.279 0 18.613 8.334 18.613 18.613s-8.334 18.613-18.613 18.613zM559.501 398.118h-96.943c-10.279 0-18.613-8.334-18.613-18.613s8.334-18.613 18.613-18.613h96.943c10.279 0 18.613 8.334 18.613 18.613s-8.334 18.613-18.613 18.613zM559.501 472.57h-96.943c-10.279 0-18.613-8.334-18.613-18.613s8.334-18.613 18.613-18.613h96.943c10.279 0 18.613 8.334 18.613 18.613s-8.334 18.613-18.613 18.613zM559.501 547.021h-96.943c-10.279 0-18.613-8.334-18.613-18.613s8.334-18.613 18.613-18.613h96.943c10.279 0 18.613 8.334 18.613 18.613s-8.334 18.613-18.613 18.613zM559.501 621.084h-96.943c-10.279 0-18.613-8.334-18.613-18.613s8.334-18.613 18.613-18.613h96.943c10.279 0 18.613 8.334 18.613 18.613s-8.334 18.613-18.613 18.613zM559.501 695.536h-96.943c-10.279 0-18.613-8.334-18.613-18.613s8.334-18.613 18.613-18.613h96.943c10.279 0 18.613 8.334 18.613 18.613s-8.334 18.613-18.613 18.613zM559.501 769.988h-96.943c-10.279 0-18.613-8.334-18.613-18.613s8.334-18.613 18.613-18.613h96.943c10.279 0 18.613 8.334 18.613 18.613s-8.334 18.613-18.613 18.613z" />
<glyph unicode="office" glyph-name="office" d="M0-64h512v1024h-512v-1024zM320 832h128v-128h-128v128zM320 576h128v-128h-128v128zM320 320h128v-128h-128v128zM64 832h128v-128h-128v128zM64 576h128v-128h-128v128zM64 320h128v-128h-128v128zM576 640h448v-64h-448zM576-64h128v256h192v-256h128v576h-448z" />
<glyph unicode="buildings" glyph-name="office" d="M0-64h512v1024h-512v-1024zM320 832h128v-128h-128v128zM320 576h128v-128h-128v128zM320 320h128v-128h-128v128zM64 832h128v-128h-128v128zM64 576h128v-128h-128v128zM64 320h128v-128h-128v128zM576 640h448v-64h-448zM576-64h128v256h192v-256h128v576h-448z" />
</font>
</defs>
</svg>
